<svg width="221" height="62" viewBox="0 0 221 62" fill="none" xmlns="http://www.w3.org/2000/svg">
<g filter="url(#filter0_d_8_1863)">
<path d="M174.727 36.144C173.875 36.144 173.191 35.88 172.675 35.352C172.159 34.812 171.865 34.104 171.793 33.228L173.395 32.742C173.491 33.402 173.653 33.9 173.881 34.236C174.109 34.56 174.445 34.722 174.889 34.722C175.237 34.722 175.501 34.626 175.681 34.434C175.861 34.23 175.951 33.96 175.951 33.624C175.951 33.324 175.885 33.054 175.753 32.814C175.621 32.574 175.405 32.328 175.105 32.076L173.323 30.546C172.963 30.234 172.657 29.886 172.405 29.502C172.165 29.118 172.045 28.62 172.045 28.008C172.045 27.456 172.153 26.994 172.369 26.622C172.597 26.238 172.909 25.95 173.305 25.758C173.713 25.554 174.187 25.452 174.727 25.452C175.555 25.452 176.185 25.722 176.617 26.262C177.061 26.79 177.313 27.432 177.373 28.188L176.077 28.674C176.029 28.314 175.957 28.002 175.861 27.738C175.765 27.462 175.633 27.252 175.465 27.108C175.297 26.952 175.075 26.874 174.799 26.874C174.487 26.874 174.235 26.982 174.043 27.198C173.863 27.402 173.773 27.648 173.773 27.936C173.773 28.116 173.809 28.296 173.881 28.476C173.965 28.644 174.103 28.812 174.295 28.98L176.131 30.672C176.383 30.9 176.617 31.146 176.833 31.41C177.061 31.674 177.247 31.974 177.391 32.31C177.535 32.646 177.607 33.036 177.607 33.48C177.607 34.068 177.487 34.56 177.247 34.956C177.007 35.352 176.671 35.652 176.239 35.856C175.807 36.048 175.303 36.144 174.727 36.144Z" fill="white"/>
<path d="M164.405 36V25.596H166.331V26.622C166.679 26.298 167.063 26.022 167.483 25.794C167.903 25.566 168.365 25.452 168.869 25.452C169.289 25.452 169.607 25.56 169.823 25.776C170.051 25.992 170.207 26.262 170.291 26.586C170.387 26.91 170.435 27.24 170.435 27.576V36H168.509V28.134C168.509 27.762 168.455 27.474 168.347 27.27C168.239 27.066 168.017 26.964 167.681 26.964C167.465 26.964 167.237 27.03 166.997 27.162C166.769 27.282 166.547 27.432 166.331 27.612V36H164.405Z" fill="white"/>
<path d="M159.62 36.144C158.852 36.144 158.246 35.988 157.802 35.676C157.358 35.364 157.04 34.92 156.848 34.344C156.668 33.768 156.578 33.09 156.578 32.31V29.286C156.578 28.506 156.668 27.828 156.848 27.252C157.04 26.676 157.358 26.232 157.802 25.92C158.246 25.608 158.852 25.452 159.62 25.452C160.388 25.452 160.988 25.608 161.42 25.92C161.864 26.232 162.176 26.676 162.356 27.252C162.548 27.828 162.644 28.506 162.644 29.286V32.31C162.644 33.09 162.548 33.768 162.356 34.344C162.176 34.92 161.864 35.364 161.42 35.676C160.988 35.988 160.388 36.144 159.62 36.144ZM159.62 34.722C159.992 34.722 160.25 34.614 160.394 34.398C160.55 34.182 160.64 33.9 160.664 33.552C160.7 33.192 160.718 32.82 160.718 32.436V29.178C160.718 28.782 160.7 28.41 160.664 28.062C160.64 27.714 160.55 27.432 160.394 27.216C160.25 26.988 159.992 26.874 159.62 26.874C159.248 26.874 158.984 26.988 158.828 27.216C158.672 27.432 158.576 27.714 158.54 28.062C158.516 28.41 158.504 28.782 158.504 29.178V32.436C158.504 32.82 158.516 33.192 158.54 33.552C158.576 33.9 158.672 34.182 158.828 34.398C158.984 34.614 159.248 34.722 159.62 34.722Z" fill="white"/>
<path d="M152.771 36V25.596H154.697V36H152.771ZM152.771 24.048V22.032H154.697V24.048H152.771Z" fill="white"/>
<path d="M149.88 36.144C149.34 36.144 148.902 36.042 148.566 35.838C148.242 35.634 148.002 35.346 147.846 34.974C147.702 34.602 147.63 34.164 147.63 33.66V26.874H146.532V25.596H147.63V22.554H149.556V25.596H151.23V26.874H149.556V33.534C149.556 33.942 149.622 34.236 149.754 34.416C149.886 34.584 150.138 34.668 150.51 34.668C150.606 34.668 150.714 34.662 150.834 34.65C150.966 34.638 151.092 34.626 151.212 34.614V36.036C150.972 36.072 150.75 36.096 150.546 36.108C150.342 36.132 150.12 36.144 149.88 36.144Z" fill="white"/>
<path d="M143.121 36V25.596H145.047V36H143.121ZM143.121 24.048V22.032H145.047V24.048H143.121Z" fill="white"/>
<path d="M137.443 36.144C136.567 36.144 135.913 35.826 135.481 35.19C135.049 34.542 134.833 33.45 134.833 31.914V29.898C134.833 29.106 134.899 28.374 135.031 27.702C135.163 27.018 135.409 26.472 135.769 26.064C136.141 25.656 136.681 25.452 137.389 25.452C137.737 25.452 138.055 25.53 138.343 25.686C138.631 25.842 138.889 26.034 139.117 26.262V21.42H141.043V36H139.117V35.334C138.889 35.574 138.637 35.772 138.361 35.928C138.097 36.072 137.791 36.144 137.443 36.144ZM137.929 34.632C138.109 34.632 138.301 34.602 138.505 34.542C138.709 34.47 138.913 34.368 139.117 34.236V27.414C138.949 27.294 138.763 27.192 138.559 27.108C138.355 27.012 138.133 26.964 137.893 26.964C137.449 26.964 137.149 27.18 136.993 27.612C136.837 28.032 136.759 28.542 136.759 29.142V32.076C136.759 32.556 136.783 32.994 136.831 33.39C136.891 33.774 137.005 34.08 137.173 34.308C137.341 34.524 137.593 34.632 137.929 34.632Z" fill="white"/>
<path d="M127.122 36V25.596H129.048V26.622C129.396 26.298 129.78 26.022 130.2 25.794C130.62 25.566 131.082 25.452 131.586 25.452C132.006 25.452 132.324 25.56 132.54 25.776C132.768 25.992 132.924 26.262 133.008 26.586C133.104 26.91 133.152 27.24 133.152 27.576V36H131.226V28.134C131.226 27.762 131.172 27.474 131.064 27.27C130.956 27.066 130.734 26.964 130.398 26.964C130.182 26.964 129.954 27.03 129.714 27.162C129.486 27.282 129.264 27.432 129.048 27.612V36H127.122Z" fill="white"/>
<path d="M122.337 36.144C121.569 36.144 120.963 35.988 120.519 35.676C120.075 35.364 119.757 34.92 119.565 34.344C119.385 33.768 119.295 33.09 119.295 32.31V29.286C119.295 28.506 119.385 27.828 119.565 27.252C119.757 26.676 120.075 26.232 120.519 25.92C120.963 25.608 121.569 25.452 122.337 25.452C123.105 25.452 123.705 25.608 124.137 25.92C124.581 26.232 124.893 26.676 125.073 27.252C125.265 27.828 125.361 28.506 125.361 29.286V32.31C125.361 33.09 125.265 33.768 125.073 34.344C124.893 34.92 124.581 35.364 124.137 35.676C123.705 35.988 123.105 36.144 122.337 36.144ZM122.337 34.722C122.709 34.722 122.967 34.614 123.111 34.398C123.267 34.182 123.357 33.9 123.381 33.552C123.417 33.192 123.435 32.82 123.435 32.436V29.178C123.435 28.782 123.417 28.41 123.381 28.062C123.357 27.714 123.267 27.432 123.111 27.216C122.967 26.988 122.709 26.874 122.337 26.874C121.965 26.874 121.701 26.988 121.545 27.216C121.389 27.432 121.293 27.714 121.257 28.062C121.233 28.41 121.221 28.782 121.221 29.178V32.436C121.221 32.82 121.233 33.192 121.257 33.552C121.293 33.9 121.389 34.182 121.545 34.398C121.701 34.614 121.965 34.722 122.337 34.722Z" fill="white"/>
<path d="M114.028 36.162C112.996 36.162 112.192 35.946 111.616 35.514C111.052 35.082 110.656 34.5 110.428 33.768C110.212 33.036 110.104 32.22 110.104 31.32V26.172C110.104 25.188 110.212 24.33 110.428 23.598C110.656 22.866 111.052 22.302 111.616 21.906C112.192 21.498 112.996 21.294 114.028 21.294C114.94 21.294 115.66 21.462 116.188 21.798C116.728 22.134 117.112 22.614 117.34 23.238C117.58 23.862 117.7 24.612 117.7 25.488V26.64H115.774V25.614C115.774 25.074 115.744 24.6 115.684 24.192C115.636 23.772 115.492 23.448 115.252 23.22C115.012 22.992 114.61 22.878 114.046 22.878C113.47 22.878 113.05 23.004 112.786 23.256C112.522 23.496 112.348 23.844 112.264 24.3C112.192 24.744 112.156 25.266 112.156 25.866V31.644C112.156 32.376 112.216 32.958 112.336 33.39C112.456 33.81 112.654 34.11 112.93 34.29C113.206 34.47 113.578 34.56 114.046 34.56C114.598 34.56 114.994 34.44 115.234 34.2C115.474 33.948 115.624 33.606 115.684 33.174C115.744 32.742 115.774 32.238 115.774 31.662V30.582H117.7V31.662C117.7 32.55 117.592 33.336 117.376 34.02C117.16 34.692 116.788 35.22 116.26 35.604C115.732 35.976 114.988 36.162 114.028 36.162Z" fill="white"/>
<path d="M100.547 36.144C99.671 36.144 99.017 35.826 98.585 35.19C98.153 34.542 97.937 33.45 97.937 31.914V29.898C97.937 29.106 98.003 28.374 98.135 27.702C98.267 27.018 98.513 26.472 98.873 26.064C99.245 25.656 99.785 25.452 100.493 25.452C100.841 25.452 101.159 25.53 101.447 25.686C101.735 25.842 101.993 26.034 102.221 26.262V21.42H104.147V36H102.221V35.334C101.993 35.574 101.741 35.772 101.465 35.928C101.201 36.072 100.895 36.144 100.547 36.144ZM101.033 34.632C101.213 34.632 101.405 34.602 101.609 34.542C101.813 34.47 102.017 34.368 102.221 34.236V27.414C102.053 27.294 101.867 27.192 101.663 27.108C101.459 27.012 101.237 26.964 100.997 26.964C100.553 26.964 100.253 27.18 100.097 27.612C99.941 28.032 99.863 28.542 99.863 29.142V32.076C99.863 32.556 99.887 32.994 99.935 33.39C99.995 33.774 100.109 34.08 100.277 34.308C100.445 34.524 100.697 34.632 101.033 34.632Z" fill="white"/>
<path d="M90.2251 36V25.596H92.1511V26.622C92.4991 26.298 92.8831 26.022 93.3031 25.794C93.7231 25.566 94.1851 25.452 94.6891 25.452C95.1091 25.452 95.4271 25.56 95.6431 25.776C95.8711 25.992 96.0271 26.262 96.1111 26.586C96.2071 26.91 96.2551 27.24 96.2551 27.576V36H94.3291V28.134C94.3291 27.762 94.2751 27.474 94.1671 27.27C94.0591 27.066 93.8371 26.964 93.5011 26.964C93.2851 26.964 93.0571 27.03 92.8171 27.162C92.5891 27.282 92.3671 27.432 92.1511 27.612V36H90.2251Z" fill="white"/>
<path d="M84.4327 36.144C84.0247 36.144 83.6647 36.03 83.3527 35.802C83.0407 35.562 82.7947 35.262 82.6147 34.902C82.4347 34.53 82.3447 34.14 82.3447 33.732C82.3447 33.084 82.4527 32.538 82.6687 32.094C82.8847 31.65 83.1787 31.278 83.5507 30.978C83.9347 30.666 84.3727 30.396 84.8647 30.168C85.3687 29.94 85.8967 29.718 86.4487 29.502V28.764C86.4487 28.344 86.4247 27.996 86.3767 27.72C86.3287 27.444 86.2267 27.24 86.0707 27.108C85.9267 26.964 85.7047 26.892 85.4047 26.892C85.1407 26.892 84.9247 26.952 84.7567 27.072C84.6007 27.192 84.4867 27.366 84.4147 27.594C84.3427 27.81 84.3067 28.068 84.3067 28.368V28.89L82.3987 28.818C82.4227 27.666 82.6867 26.82 83.1907 26.28C83.6947 25.728 84.4747 25.452 85.5307 25.452C86.5627 25.452 87.2947 25.734 87.7267 26.298C88.1587 26.862 88.3747 27.678 88.3747 28.746V33.498C88.3747 33.822 88.3807 34.134 88.3927 34.434C88.4167 34.734 88.4407 35.016 88.4647 35.28C88.5007 35.532 88.5307 35.772 88.5547 36H86.7907C86.7547 35.808 86.7067 35.568 86.6467 35.28C86.5987 34.98 86.5627 34.71 86.5387 34.47C86.4187 34.878 86.1847 35.262 85.8367 35.622C85.5007 35.97 85.0327 36.144 84.4327 36.144ZM85.1887 34.488C85.3807 34.488 85.5607 34.434 85.7287 34.326C85.8967 34.218 86.0467 34.098 86.1787 33.966C86.3107 33.822 86.4007 33.708 86.4487 33.624V30.672C86.1487 30.84 85.8667 31.008 85.6027 31.176C85.3387 31.344 85.1047 31.524 84.9007 31.716C84.7087 31.896 84.5527 32.106 84.4327 32.346C84.3247 32.574 84.2707 32.838 84.2707 33.138C84.2707 33.558 84.3487 33.888 84.5047 34.128C84.6607 34.368 84.8887 34.488 85.1887 34.488Z" fill="white"/>
<path d="M74.1274 36.144C73.2754 36.144 72.5914 35.88 72.0754 35.352C71.5594 34.812 71.2654 34.104 71.1934 33.228L72.7954 32.742C72.8914 33.402 73.0534 33.9 73.2814 34.236C73.5094 34.56 73.8454 34.722 74.2894 34.722C74.6374 34.722 74.9014 34.626 75.0814 34.434C75.2614 34.23 75.3514 33.96 75.3514 33.624C75.3514 33.324 75.2854 33.054 75.1534 32.814C75.0214 32.574 74.8054 32.328 74.5054 32.076L72.7234 30.546C72.3634 30.234 72.0574 29.886 71.8054 29.502C71.5654 29.118 71.4454 28.62 71.4454 28.008C71.4454 27.456 71.5534 26.994 71.7694 26.622C71.9974 26.238 72.3094 25.95 72.7054 25.758C73.1134 25.554 73.5874 25.452 74.1274 25.452C74.9554 25.452 75.5854 25.722 76.0174 26.262C76.4614 26.79 76.7134 27.432 76.7734 28.188L75.4774 28.674C75.4294 28.314 75.3574 28.002 75.2614 27.738C75.1654 27.462 75.0334 27.252 74.8654 27.108C74.6974 26.952 74.4754 26.874 74.1994 26.874C73.8874 26.874 73.6354 26.982 73.4434 27.198C73.2634 27.402 73.1734 27.648 73.1734 27.936C73.1734 28.116 73.2094 28.296 73.2814 28.476C73.3654 28.644 73.5034 28.812 73.6954 28.98L75.5314 30.672C75.7834 30.9 76.0174 31.146 76.2334 31.41C76.4614 31.674 76.6474 31.974 76.7914 32.31C76.9354 32.646 77.0074 33.036 77.0074 33.48C77.0074 34.068 76.8874 34.56 76.6474 34.956C76.4074 35.352 76.0714 35.652 75.6394 35.856C75.2074 36.048 74.7034 36.144 74.1274 36.144Z" fill="white"/>
<path d="M59.481 36V25.596H61.263V26.586C61.611 26.19 61.995 25.896 62.415 25.704C62.835 25.512 63.267 25.416 63.711 25.416C64.095 25.416 64.437 25.512 64.737 25.704C65.049 25.896 65.271 26.238 65.403 26.73C65.775 26.274 66.177 25.944 66.609 25.74C67.053 25.524 67.515 25.416 67.995 25.416C68.331 25.416 68.637 25.5 68.913 25.668C69.189 25.824 69.411 26.082 69.579 26.442C69.747 26.79 69.831 27.252 69.831 27.828V36H68.067V27.954C68.067 27.45 67.983 27.114 67.815 26.946C67.659 26.766 67.443 26.676 67.167 26.676C66.903 26.676 66.627 26.754 66.339 26.91C66.051 27.054 65.787 27.258 65.547 27.522C65.547 27.57 65.547 27.618 65.547 27.666C65.547 27.714 65.547 27.768 65.547 27.828V36H63.783V27.954C63.783 27.45 63.699 27.114 63.531 26.946C63.375 26.766 63.159 26.676 62.883 26.676C62.619 26.676 62.343 26.754 62.055 26.91C61.779 27.054 61.515 27.258 61.263 27.522V36H59.481Z" fill="white"/>
<path d="M53.7515 36V25.596H55.6775V27.072C56.0615 26.436 56.4455 26.01 56.8295 25.794C57.2135 25.578 57.5975 25.47 57.9815 25.47C58.0295 25.47 58.0715 25.47 58.1075 25.47C58.1555 25.47 58.2155 25.476 58.2875 25.488V27.612C58.1435 27.552 57.9755 27.504 57.7835 27.468C57.6035 27.42 57.4175 27.396 57.2255 27.396C56.9255 27.396 56.6495 27.468 56.3975 27.612C56.1575 27.744 55.9175 28.008 55.6775 28.404V36H53.7515Z" fill="white"/>
<path d="M49.0013 36.144C48.1853 36.144 47.5553 35.988 47.1113 35.676C46.6673 35.352 46.3553 34.884 46.1753 34.272C46.0073 33.648 45.9233 32.886 45.9233 31.986V29.61C45.9233 28.686 46.0133 27.918 46.1933 27.306C46.3733 26.694 46.6853 26.232 47.1293 25.92C47.5853 25.608 48.2093 25.452 49.0013 25.452C49.8773 25.452 50.5193 25.632 50.9273 25.992C51.3473 26.352 51.6233 26.874 51.7553 27.558C51.8873 28.23 51.9533 29.04 51.9533 29.988V30.834H47.8493V32.922C47.8493 33.342 47.8853 33.684 47.9573 33.948C48.0413 34.212 48.1673 34.41 48.3353 34.542C48.5153 34.662 48.7433 34.722 49.0193 34.722C49.3073 34.722 49.5233 34.656 49.6673 34.524C49.8233 34.38 49.9253 34.182 49.9733 33.93C50.0333 33.666 50.0633 33.36 50.0633 33.012V32.382H51.9353V32.778C51.9353 33.822 51.7133 34.644 51.2693 35.244C50.8253 35.844 50.0693 36.144 49.0013 36.144ZM47.8493 29.79H50.0633V28.854C50.0633 28.422 50.0393 28.062 49.9913 27.774C49.9433 27.474 49.8413 27.252 49.6853 27.108C49.5413 26.952 49.3073 26.874 48.9833 26.874C48.6713 26.874 48.4313 26.946 48.2633 27.09C48.1073 27.234 47.9993 27.48 47.9393 27.828C47.8793 28.164 47.8493 28.632 47.8493 29.232V29.79Z" fill="white"/>
<path d="M40.6608 36V22.932H38.1948V21.42H45.0888V22.932H42.6948V36H40.6608Z" fill="white"/>
<path fill-rule="evenodd" clip-rule="evenodd" d="M6 28.5C5.99996 16.0736 16.0735 6 28.4999 6H187.541C200.468 6 210.919 16.533 210.819 29.459C210.918 41.8781 200.878 52 188.458 52H29.4999C16.5212 52 5.99996 41.4787 6 28.5ZM209.819 29.4583L208.819 29.4503C208.914 17.6317 199.36 8 187.541 8H28.4999C17.1781 8 7.99996 17.1782 8 28.5C7.99996 40.3741 17.6258 50 29.4999 50H188.458C199.77 50 208.914 40.7789 208.819 29.4667L209.819 29.4583Z" fill="white"/>
</g>
<defs>
<filter id="filter0_d_8_1863" x="0" y="0" width="220.819" height="62" filterUnits="userSpaceOnUse" color-interpolation-filters="sRGB">
<feFlood flood-opacity="0" result="BackgroundImageFix"/>
<feColorMatrix in="SourceAlpha" type="matrix" values="0 0 0 0 0 0 0 0 0 0 0 0 0 0 0 0 0 0 127 0" result="hardAlpha"/>
<feOffset dx="2" dy="2"/>
<feGaussianBlur stdDeviation="4"/>
<feComposite in2="hardAlpha" operator="out"/>
<feColorMatrix type="matrix" values="0 0 0 0 0 0 0 0 0 0 0 0 0 0 0 0 0 0 0.11 0"/>
<feBlend mode="normal" in2="BackgroundImageFix" result="effect1_dropShadow_8_1863"/>
<feBlend mode="normal" in="SourceGraphic" in2="effect1_dropShadow_8_1863" result="shape"/>
</filter>
</defs>
</svg>
