<svg width="228" height="62" viewBox="0 0 228 62" fill="none" xmlns="http://www.w3.org/2000/svg">
<g filter="url(#filter0_d_41_6001)">
<path d="M37.7099 36V22.932H35.2439V21.42H42.1379V22.932H39.7439V36H37.7099ZM46.9506 36.144C46.1346 36.144 45.5046 35.988 45.0606 35.676C44.6166 35.352 44.3046 34.884 44.1246 34.272C43.9566 33.648 43.8726 32.886 43.8726 31.986V29.61C43.8726 28.686 43.9626 27.918 44.1426 27.306C44.3226 26.694 44.6346 26.232 45.0786 25.92C45.5346 25.608 46.1586 25.452 46.9506 25.452C47.8266 25.452 48.4686 25.632 48.8766 25.992C49.2966 26.352 49.5726 26.874 49.7046 27.558C49.8366 28.23 49.9026 29.04 49.9026 29.988V30.834H45.7986V32.922C45.7986 33.342 45.8346 33.684 45.9066 33.948C45.9906 34.212 46.1166 34.41 46.2846 34.542C46.4646 34.662 46.6926 34.722 46.9686 34.722C47.2566 34.722 47.4726 34.656 47.6166 34.524C47.7726 34.38 47.8746 34.182 47.9226 33.93C47.9826 33.666 48.0126 33.36 48.0126 33.012V32.382H49.8846V32.778C49.8846 33.822 49.6626 34.644 49.2186 35.244C48.7746 35.844 48.0186 36.144 46.9506 36.144ZM45.7986 29.79H48.0126V28.854C48.0126 28.422 47.9886 28.062 47.9406 27.774C47.8926 27.474 47.7906 27.252 47.6346 27.108C47.4906 26.952 47.2566 26.874 46.9326 26.874C46.6206 26.874 46.3806 26.946 46.2126 27.09C46.0566 27.234 45.9486 27.48 45.8886 27.828C45.8286 28.164 45.7986 28.632 45.7986 29.232V29.79ZM52.6007 36V25.596H54.5267V27.072C54.9107 26.436 55.2947 26.01 55.6787 25.794C56.0627 25.578 56.4467 25.47 56.8307 25.47C56.8787 25.47 56.9207 25.47 56.9567 25.47C57.0047 25.47 57.0647 25.476 57.1367 25.488V27.612C56.9927 27.552 56.8247 27.504 56.6327 27.468C56.4527 27.42 56.2667 27.396 56.0747 27.396C55.7747 27.396 55.4987 27.468 55.2467 27.612C55.0067 27.744 54.7667 28.008 54.5267 28.404V36H52.6007ZM59.2299 36V25.596H61.0119V26.586C61.3599 26.19 61.7439 25.896 62.1639 25.704C62.5839 25.512 63.0159 25.416 63.4599 25.416C63.8439 25.416 64.1859 25.512 64.4859 25.704C64.7979 25.896 65.0199 26.238 65.1519 26.73C65.5239 26.274 65.9259 25.944 66.3579 25.74C66.8019 25.524 67.2639 25.416 67.7439 25.416C68.0799 25.416 68.3859 25.5 68.6619 25.668C68.9379 25.824 69.1599 26.082 69.3279 26.442C69.4959 26.79 69.5799 27.252 69.5799 27.828V36H67.8159V27.954C67.8159 27.45 67.7319 27.114 67.5639 26.946C67.4079 26.766 67.1919 26.676 66.9159 26.676C66.6519 26.676 66.3759 26.754 66.0879 26.91C65.7999 27.054 65.5359 27.258 65.2959 27.522C65.2959 27.57 65.2959 27.618 65.2959 27.666C65.2959 27.714 65.2959 27.768 65.2959 27.828V36H63.5319V27.954C63.5319 27.45 63.4479 27.114 63.2799 26.946C63.1239 26.766 62.9079 26.676 62.6319 26.676C62.3679 26.676 62.0919 26.754 61.8039 26.91C61.5279 27.054 61.2639 27.258 61.0119 27.522V36H59.2299ZM72.4903 36V25.596H74.4163V36H72.4903ZM72.4903 24.048V22.032H74.4163V24.048H72.4903ZM77.3776 36V25.596H79.3036V26.622C79.6516 26.298 80.0356 26.022 80.4556 25.794C80.8756 25.566 81.3376 25.452 81.8416 25.452C82.2616 25.452 82.5796 25.56 82.7956 25.776C83.0236 25.992 83.1796 26.262 83.2636 26.586C83.3596 26.91 83.4076 27.24 83.4076 27.576V36H81.4816V28.134C81.4816 27.762 81.4276 27.474 81.3196 27.27C81.2116 27.066 80.9896 26.964 80.6536 26.964C80.4376 26.964 80.2096 27.03 79.9696 27.162C79.7416 27.282 79.5196 27.432 79.3036 27.612V36H77.3776ZM86.3137 36V25.596H88.2397V36H86.3137ZM86.3137 24.048V22.032H88.2397V24.048H86.3137ZM99.4363 36.162C98.7763 36.162 98.2063 36.024 97.7263 35.748C97.2583 35.46 96.8983 35.07 96.6463 34.578C96.4063 34.086 96.2863 33.522 96.2863 32.886C96.2863 31.962 96.4903 31.164 96.8983 30.492C97.3183 29.808 97.8223 29.202 98.4103 28.674C98.1943 28.242 97.9603 27.81 97.7083 27.378C97.4683 26.934 97.2583 26.478 97.0783 26.01C96.9103 25.53 96.8263 25.032 96.8263 24.516C96.8263 23.868 96.9523 23.304 97.2043 22.824C97.4563 22.344 97.8163 21.972 98.2843 21.708C98.7523 21.432 99.3043 21.294 99.9403 21.294C100.528 21.294 101.05 21.402 101.506 21.618C101.974 21.834 102.346 22.146 102.622 22.554C102.898 22.95 103.036 23.43 103.036 23.994C103.036 24.63 102.886 25.242 102.586 25.83C102.298 26.406 101.944 26.946 101.524 27.45C101.104 27.942 100.696 28.38 100.3 28.764L102.496 32.22C102.628 31.968 102.736 31.686 102.82 31.374C102.916 31.05 102.994 30.708 103.054 30.348C103.126 29.988 103.18 29.64 103.216 29.304H105.124C105.124 29.772 105.052 30.264 104.908 30.78C104.776 31.296 104.602 31.788 104.386 32.256C104.17 32.712 103.948 33.102 103.72 33.426C103.876 33.618 104.08 33.792 104.332 33.948C104.584 34.092 104.854 34.164 105.142 34.164V36.144C105.094 36.144 105.046 36.144 104.998 36.144C104.962 36.144 104.926 36.144 104.89 36.144C104.542 36.132 104.23 36.054 103.954 35.91C103.678 35.754 103.426 35.568 103.198 35.352C102.982 35.136 102.772 34.932 102.568 34.74C102.244 35.148 101.818 35.49 101.29 35.766C100.774 36.03 100.156 36.162 99.4363 36.162ZM99.4363 34.56C99.8923 34.56 100.276 34.452 100.588 34.236C100.9 34.008 101.17 33.756 101.398 33.48L99.1663 30.042C98.8783 30.414 98.6443 30.852 98.4643 31.356C98.2963 31.848 98.2123 32.358 98.2123 32.886C98.2123 33.162 98.2483 33.432 98.3203 33.696C98.3923 33.948 98.5183 34.158 98.6983 34.326C98.8783 34.482 99.1243 34.56 99.4363 34.56ZM99.6343 27.72C99.8863 27.42 100.12 27.066 100.336 26.658C100.564 26.25 100.75 25.818 100.894 25.362C101.038 24.894 101.11 24.438 101.11 23.994C101.11 23.646 101.002 23.376 100.786 23.184C100.57 22.98 100.288 22.878 99.9403 22.878C99.5083 22.878 99.2023 23.046 99.0223 23.382C98.8423 23.718 98.7523 24.096 98.7523 24.516C98.7523 25.068 98.8423 25.62 99.0223 26.172C99.2143 26.712 99.4183 27.228 99.6343 27.72ZM116.86 36.162C115.828 36.162 115.024 35.946 114.448 35.514C113.884 35.082 113.488 34.5 113.26 33.768C113.044 33.036 112.936 32.22 112.936 31.32V26.172C112.936 25.188 113.044 24.33 113.26 23.598C113.488 22.866 113.884 22.302 114.448 21.906C115.024 21.498 115.828 21.294 116.86 21.294C117.772 21.294 118.492 21.462 119.02 21.798C119.56 22.134 119.944 22.614 120.172 23.238C120.412 23.862 120.532 24.612 120.532 25.488V26.64H118.606V25.614C118.606 25.074 118.576 24.6 118.516 24.192C118.468 23.772 118.324 23.448 118.084 23.22C117.844 22.992 117.442 22.878 116.878 22.878C116.302 22.878 115.882 23.004 115.618 23.256C115.354 23.496 115.18 23.844 115.096 24.3C115.024 24.744 114.988 25.266 114.988 25.866V31.644C114.988 32.376 115.048 32.958 115.168 33.39C115.288 33.81 115.486 34.11 115.762 34.29C116.038 34.47 116.41 34.56 116.878 34.56C117.43 34.56 117.826 34.44 118.066 34.2C118.306 33.948 118.456 33.606 118.516 33.174C118.576 32.742 118.606 32.238 118.606 31.662V30.582H120.532V31.662C120.532 32.55 120.424 33.336 120.208 34.02C119.992 34.692 119.62 35.22 119.092 35.604C118.564 35.976 117.82 36.162 116.86 36.162ZM126.069 36.144C125.301 36.144 124.695 35.988 124.251 35.676C123.807 35.364 123.489 34.92 123.297 34.344C123.117 33.768 123.027 33.09 123.027 32.31V29.286C123.027 28.506 123.117 27.828 123.297 27.252C123.489 26.676 123.807 26.232 124.251 25.92C124.695 25.608 125.301 25.452 126.069 25.452C126.837 25.452 127.437 25.608 127.869 25.92C128.313 26.232 128.625 26.676 128.805 27.252C128.997 27.828 129.093 28.506 129.093 29.286V32.31C129.093 33.09 128.997 33.768 128.805 34.344C128.625 34.92 128.313 35.364 127.869 35.676C127.437 35.988 126.837 36.144 126.069 36.144ZM126.069 34.722C126.441 34.722 126.699 34.614 126.843 34.398C126.999 34.182 127.089 33.9 127.113 33.552C127.149 33.192 127.167 32.82 127.167 32.436V29.178C127.167 28.782 127.149 28.41 127.113 28.062C127.089 27.714 126.999 27.432 126.843 27.216C126.699 26.988 126.441 26.874 126.069 26.874C125.697 26.874 125.433 26.988 125.277 27.216C125.121 27.432 125.025 27.714 124.989 28.062C124.965 28.41 124.953 28.782 124.953 29.178V32.436C124.953 32.82 124.965 33.192 124.989 33.552C125.025 33.9 125.121 34.182 125.277 34.398C125.433 34.614 125.697 34.722 126.069 34.722ZM131.754 36V25.596H133.68V26.622C134.028 26.298 134.412 26.022 134.832 25.794C135.252 25.566 135.714 25.452 136.218 25.452C136.638 25.452 136.956 25.56 137.172 25.776C137.4 25.992 137.556 26.262 137.64 26.586C137.736 26.91 137.784 27.24 137.784 27.576V36H135.858V28.134C135.858 27.762 135.804 27.474 135.696 27.27C135.588 27.066 135.366 26.964 135.03 26.964C134.814 26.964 134.586 27.03 134.346 27.162C134.118 27.282 133.896 27.432 133.68 27.612V36H131.754ZM142.976 36.144C142.1 36.144 141.446 35.826 141.014 35.19C140.582 34.542 140.366 33.45 140.366 31.914V29.898C140.366 29.106 140.432 28.374 140.564 27.702C140.696 27.018 140.942 26.472 141.302 26.064C141.674 25.656 142.214 25.452 142.922 25.452C143.27 25.452 143.588 25.53 143.876 25.686C144.164 25.842 144.422 26.034 144.65 26.262V21.42H146.576V36H144.65V35.334C144.422 35.574 144.17 35.772 143.894 35.928C143.63 36.072 143.324 36.144 142.976 36.144ZM143.462 34.632C143.642 34.632 143.834 34.602 144.038 34.542C144.242 34.47 144.446 34.368 144.65 34.236V27.414C144.482 27.294 144.296 27.192 144.092 27.108C143.888 27.012 143.666 26.964 143.426 26.964C142.982 26.964 142.682 27.18 142.526 27.612C142.37 28.032 142.292 28.542 142.292 29.142V32.076C142.292 32.556 142.316 32.994 142.364 33.39C142.424 33.774 142.538 34.08 142.706 34.308C142.874 34.524 143.126 34.632 143.462 34.632ZM149.553 36V25.596H151.479V36H149.553ZM149.553 24.048V22.032H151.479V24.048H149.553ZM154.044 36V34.704L157.23 27.036H154.368V25.596H159.3V26.64L156.096 34.542H159.228V36H154.044ZM161.706 36V25.596H163.632V36H161.706ZM161.706 24.048V22.032H163.632V24.048H161.706ZM169.456 36.144C168.688 36.144 168.082 35.988 167.638 35.676C167.194 35.364 166.876 34.92 166.684 34.344C166.504 33.768 166.414 33.09 166.414 32.31V29.286C166.414 28.506 166.504 27.828 166.684 27.252C166.876 26.676 167.194 26.232 167.638 25.92C168.082 25.608 168.688 25.452 169.456 25.452C170.224 25.452 170.824 25.608 171.256 25.92C171.7 26.232 172.012 26.676 172.192 27.252C172.384 27.828 172.48 28.506 172.48 29.286V32.31C172.48 33.09 172.384 33.768 172.192 34.344C172.012 34.92 171.7 35.364 171.256 35.676C170.824 35.988 170.224 36.144 169.456 36.144ZM169.456 34.722C169.828 34.722 170.086 34.614 170.23 34.398C170.386 34.182 170.476 33.9 170.5 33.552C170.536 33.192 170.554 32.82 170.554 32.436V29.178C170.554 28.782 170.536 28.41 170.5 28.062C170.476 27.714 170.386 27.432 170.23 27.216C170.086 26.988 169.828 26.874 169.456 26.874C169.084 26.874 168.82 26.988 168.664 27.216C168.508 27.432 168.412 27.714 168.376 28.062C168.352 28.41 168.34 28.782 168.34 29.178V32.436C168.34 32.82 168.352 33.192 168.376 33.552C168.412 33.9 168.508 34.182 168.664 34.398C168.82 34.614 169.084 34.722 169.456 34.722ZM175.14 36V25.596H177.066V26.622C177.414 26.298 177.798 26.022 178.218 25.794C178.638 25.566 179.1 25.452 179.604 25.452C180.024 25.452 180.342 25.56 180.558 25.776C180.786 25.992 180.942 26.262 181.026 26.586C181.122 26.91 181.17 27.24 181.17 27.576V36H179.244V28.134C179.244 27.762 179.19 27.474 179.082 27.27C178.974 27.066 178.752 26.964 178.416 26.964C178.2 26.964 177.972 27.03 177.732 27.162C177.504 27.282 177.282 27.432 177.066 27.612V36H175.14ZM184.076 36V25.596H186.002V36H184.076ZM184.076 24.048V22.032H186.002V24.048H184.076Z" fill="white"/>
<path d="M194.541 7H28.5C16.6259 7 7.00003 16.6259 7.00008 28.5C7.00003 40.9264 17.0736 51 29.5 51H195.458C207.325 51 216.916 41.325 216.813 29.4583C216.916 17.0854 206.914 7 194.541 7Z" stroke="white" stroke-width="2"/>
</g>
<defs>
<filter id="filter0_d_41_6001" x="0" y="0" width="227.813" height="62" filterUnits="userSpaceOnUse" color-interpolation-filters="sRGB">
<feFlood flood-opacity="0" result="BackgroundImageFix"/>
<feColorMatrix in="SourceAlpha" type="matrix" values="0 0 0 0 0 0 0 0 0 0 0 0 0 0 0 0 0 0 127 0" result="hardAlpha"/>
<feOffset dx="2" dy="2"/>
<feGaussianBlur stdDeviation="4"/>
<feComposite in2="hardAlpha" operator="out"/>
<feColorMatrix type="matrix" values="0 0 0 0 0 0 0 0 0 0 0 0 0 0 0 0 0 0 0.11 0"/>
<feBlend mode="normal" in2="BackgroundImageFix" result="effect1_dropShadow_41_6001"/>
<feBlend mode="normal" in="SourceGraphic" in2="effect1_dropShadow_41_6001" result="shape"/>
</filter>
</defs>
</svg>
