<svg width="221" height="62" viewBox="0 0 221 62" fill="none" xmlns="http://www.w3.org/2000/svg">
<g filter="url(#filter0_d_41_5983)">
<path d="M40.6608 36V22.932H38.1948V21.42H45.0888V22.932H42.6948V36H40.6608ZM49.0014 36.144C48.1854 36.144 47.5554 35.988 47.1114 35.676C46.6674 35.352 46.3554 34.884 46.1754 34.272C46.0074 33.648 45.9234 32.886 45.9234 31.986V29.61C45.9234 28.686 46.0134 27.918 46.1934 27.306C46.3734 26.694 46.6854 26.232 47.1294 25.92C47.5854 25.608 48.2094 25.452 49.0014 25.452C49.8774 25.452 50.5194 25.632 50.9274 25.992C51.3474 26.352 51.6234 26.874 51.7554 27.558C51.8874 28.23 51.9534 29.04 51.9534 29.988V30.834H47.8494V32.922C47.8494 33.342 47.8854 33.684 47.9574 33.948C48.0414 34.212 48.1674 34.41 48.3354 34.542C48.5154 34.662 48.7434 34.722 49.0194 34.722C49.3074 34.722 49.5234 34.656 49.6674 34.524C49.8234 34.38 49.9254 34.182 49.9734 33.93C50.0334 33.666 50.0634 33.36 50.0634 33.012V32.382H51.9354V32.778C51.9354 33.822 51.7134 34.644 51.2694 35.244C50.8254 35.844 50.0694 36.144 49.0014 36.144ZM47.8494 29.79H50.0634V28.854C50.0634 28.422 50.0394 28.062 49.9914 27.774C49.9434 27.474 49.8414 27.252 49.6854 27.108C49.5414 26.952 49.3074 26.874 48.9834 26.874C48.6714 26.874 48.4314 26.946 48.2634 27.09C48.1074 27.234 47.9994 27.48 47.9394 27.828C47.8794 28.164 47.8494 28.632 47.8494 29.232V29.79ZM53.7516 36V25.596H55.6776V27.072C56.0616 26.436 56.4456 26.01 56.8296 25.794C57.2136 25.578 57.5976 25.47 57.9816 25.47C58.0296 25.47 58.0716 25.47 58.1076 25.47C58.1556 25.47 58.2156 25.476 58.2876 25.488V27.612C58.1436 27.552 57.9756 27.504 57.7836 27.468C57.6036 27.42 57.4176 27.396 57.2256 27.396C56.9256 27.396 56.6496 27.468 56.3976 27.612C56.1576 27.744 55.9176 28.008 55.6776 28.404V36H53.7516ZM59.4808 36V25.596H61.2628V26.586C61.6108 26.19 61.9948 25.896 62.4148 25.704C62.8348 25.512 63.2668 25.416 63.7108 25.416C64.0948 25.416 64.4368 25.512 64.7368 25.704C65.0488 25.896 65.2708 26.238 65.4028 26.73C65.7748 26.274 66.1768 25.944 66.6088 25.74C67.0528 25.524 67.5148 25.416 67.9948 25.416C68.3308 25.416 68.6368 25.5 68.9128 25.668C69.1888 25.824 69.4108 26.082 69.5788 26.442C69.7468 26.79 69.8308 27.252 69.8308 27.828V36H68.0668V27.954C68.0668 27.45 67.9828 27.114 67.8148 26.946C67.6588 26.766 67.4428 26.676 67.1668 26.676C66.9028 26.676 66.6268 26.754 66.3388 26.91C66.0508 27.054 65.7868 27.258 65.5468 27.522C65.5468 27.57 65.5468 27.618 65.5468 27.666C65.5468 27.714 65.5468 27.768 65.5468 27.828V36H63.7828V27.954C63.7828 27.45 63.6988 27.114 63.5308 26.946C63.3748 26.766 63.1588 26.676 62.8828 26.676C62.6188 26.676 62.3428 26.754 62.0548 26.91C61.7788 27.054 61.5148 27.258 61.2628 27.522V36H59.4808ZM74.1272 36.144C73.2752 36.144 72.5912 35.88 72.0752 35.352C71.5592 34.812 71.2652 34.104 71.1932 33.228L72.7952 32.742C72.8912 33.402 73.0532 33.9 73.2812 34.236C73.5092 34.56 73.8452 34.722 74.2892 34.722C74.6372 34.722 74.9012 34.626 75.0812 34.434C75.2612 34.23 75.3512 33.96 75.3512 33.624C75.3512 33.324 75.2852 33.054 75.1532 32.814C75.0212 32.574 74.8052 32.328 74.5052 32.076L72.7232 30.546C72.3632 30.234 72.0572 29.886 71.8052 29.502C71.5652 29.118 71.4452 28.62 71.4452 28.008C71.4452 27.456 71.5532 26.994 71.7692 26.622C71.9972 26.238 72.3092 25.95 72.7052 25.758C73.1132 25.554 73.5872 25.452 74.1272 25.452C74.9552 25.452 75.5852 25.722 76.0172 26.262C76.4612 26.79 76.7132 27.432 76.7732 28.188L75.4772 28.674C75.4292 28.314 75.3572 28.002 75.2612 27.738C75.1652 27.462 75.0332 27.252 74.8652 27.108C74.6972 26.952 74.4752 26.874 74.1992 26.874C73.8872 26.874 73.6352 26.982 73.4432 27.198C73.2632 27.402 73.1732 27.648 73.1732 27.936C73.1732 28.116 73.2092 28.296 73.2812 28.476C73.3652 28.644 73.5032 28.812 73.6952 28.98L75.5312 30.672C75.7832 30.9 76.0172 31.146 76.2332 31.41C76.4612 31.674 76.6472 31.974 76.7912 32.31C76.9352 32.646 77.0072 33.036 77.0072 33.48C77.0072 34.068 76.8872 34.56 76.6472 34.956C76.4072 35.352 76.0712 35.652 75.6392 35.856C75.2072 36.048 74.7032 36.144 74.1272 36.144ZM84.4329 36.144C84.0249 36.144 83.6649 36.03 83.3529 35.802C83.0409 35.562 82.7949 35.262 82.6149 34.902C82.4349 34.53 82.3449 34.14 82.3449 33.732C82.3449 33.084 82.4529 32.538 82.6689 32.094C82.8849 31.65 83.1789 31.278 83.5509 30.978C83.9349 30.666 84.3729 30.396 84.8649 30.168C85.3689 29.94 85.8969 29.718 86.4489 29.502V28.764C86.4489 28.344 86.4249 27.996 86.3769 27.72C86.3289 27.444 86.2269 27.24 86.0709 27.108C85.9269 26.964 85.7049 26.892 85.4049 26.892C85.1409 26.892 84.9249 26.952 84.7569 27.072C84.6009 27.192 84.4869 27.366 84.4149 27.594C84.3429 27.81 84.3069 28.068 84.3069 28.368V28.89L82.3989 28.818C82.4229 27.666 82.6869 26.82 83.1909 26.28C83.6949 25.728 84.4749 25.452 85.5309 25.452C86.5629 25.452 87.2949 25.734 87.7269 26.298C88.1589 26.862 88.3749 27.678 88.3749 28.746V33.498C88.3749 33.822 88.3809 34.134 88.3929 34.434C88.4169 34.734 88.4409 35.016 88.4649 35.28C88.5009 35.532 88.5309 35.772 88.5549 36H86.7909C86.7549 35.808 86.7069 35.568 86.6469 35.28C86.5989 34.98 86.5629 34.71 86.5389 34.47C86.4189 34.878 86.1849 35.262 85.8369 35.622C85.5009 35.97 85.0329 36.144 84.4329 36.144ZM85.1889 34.488C85.3809 34.488 85.5609 34.434 85.7289 34.326C85.8969 34.218 86.0469 34.098 86.1789 33.966C86.3109 33.822 86.4009 33.708 86.4489 33.624V30.672C86.1489 30.84 85.8669 31.008 85.6029 31.176C85.3389 31.344 85.1049 31.524 84.9009 31.716C84.7089 31.896 84.5529 32.106 84.4329 32.346C84.3249 32.574 84.2709 32.838 84.2709 33.138C84.2709 33.558 84.3489 33.888 84.5049 34.128C84.6609 34.368 84.8889 34.488 85.1889 34.488ZM90.2249 36V25.596H92.1509V26.622C92.4989 26.298 92.8829 26.022 93.3029 25.794C93.7229 25.566 94.1849 25.452 94.6889 25.452C95.1089 25.452 95.4269 25.56 95.6429 25.776C95.8709 25.992 96.0269 26.262 96.1109 26.586C96.2069 26.91 96.2549 27.24 96.2549 27.576V36H94.3289V28.134C94.3289 27.762 94.2749 27.474 94.1669 27.27C94.0589 27.066 93.8369 26.964 93.5009 26.964C93.2849 26.964 93.0569 27.03 92.8169 27.162C92.5889 27.282 92.3669 27.432 92.1509 27.612V36H90.2249ZM100.547 36.144C99.6711 36.144 99.0171 35.826 98.5851 35.19C98.1531 34.542 97.9371 33.45 97.9371 31.914V29.898C97.9371 29.106 98.0031 28.374 98.1351 27.702C98.2671 27.018 98.5131 26.472 98.8731 26.064C99.2451 25.656 99.7851 25.452 100.493 25.452C100.841 25.452 101.159 25.53 101.447 25.686C101.735 25.842 101.993 26.034 102.221 26.262V21.42H104.147V36H102.221V35.334C101.993 35.574 101.741 35.772 101.465 35.928C101.201 36.072 100.895 36.144 100.547 36.144ZM101.033 34.632C101.213 34.632 101.405 34.602 101.609 34.542C101.813 34.47 102.017 34.368 102.221 34.236V27.414C102.053 27.294 101.867 27.192 101.663 27.108C101.459 27.012 101.237 26.964 100.997 26.964C100.553 26.964 100.253 27.18 100.097 27.612C99.9411 28.032 99.8631 28.542 99.8631 29.142V32.076C99.8631 32.556 99.8871 32.994 99.9351 33.39C99.9951 33.774 100.109 34.08 100.277 34.308C100.445 34.524 100.697 34.632 101.033 34.632ZM114.027 36.162C112.995 36.162 112.191 35.946 111.615 35.514C111.051 35.082 110.655 34.5 110.427 33.768C110.211 33.036 110.103 32.22 110.103 31.32V26.172C110.103 25.188 110.211 24.33 110.427 23.598C110.655 22.866 111.051 22.302 111.615 21.906C112.191 21.498 112.995 21.294 114.027 21.294C114.939 21.294 115.659 21.462 116.187 21.798C116.727 22.134 117.111 22.614 117.339 23.238C117.579 23.862 117.699 24.612 117.699 25.488V26.64H115.773V25.614C115.773 25.074 115.743 24.6 115.683 24.192C115.635 23.772 115.491 23.448 115.251 23.22C115.011 22.992 114.609 22.878 114.045 22.878C113.469 22.878 113.049 23.004 112.785 23.256C112.521 23.496 112.347 23.844 112.263 24.3C112.191 24.744 112.155 25.266 112.155 25.866V31.644C112.155 32.376 112.215 32.958 112.335 33.39C112.455 33.81 112.653 34.11 112.929 34.29C113.205 34.47 113.577 34.56 114.045 34.56C114.597 34.56 114.993 34.44 115.233 34.2C115.473 33.948 115.623 33.606 115.683 33.174C115.743 32.742 115.773 32.238 115.773 31.662V30.582H117.699V31.662C117.699 32.55 117.591 33.336 117.375 34.02C117.159 34.692 116.787 35.22 116.259 35.604C115.731 35.976 114.987 36.162 114.027 36.162ZM122.337 36.144C121.569 36.144 120.963 35.988 120.519 35.676C120.075 35.364 119.757 34.92 119.565 34.344C119.385 33.768 119.295 33.09 119.295 32.31V29.286C119.295 28.506 119.385 27.828 119.565 27.252C119.757 26.676 120.075 26.232 120.519 25.92C120.963 25.608 121.569 25.452 122.337 25.452C123.105 25.452 123.705 25.608 124.137 25.92C124.581 26.232 124.893 26.676 125.073 27.252C125.265 27.828 125.361 28.506 125.361 29.286V32.31C125.361 33.09 125.265 33.768 125.073 34.344C124.893 34.92 124.581 35.364 124.137 35.676C123.705 35.988 123.105 36.144 122.337 36.144ZM122.337 34.722C122.709 34.722 122.967 34.614 123.111 34.398C123.267 34.182 123.357 33.9 123.381 33.552C123.417 33.192 123.435 32.82 123.435 32.436V29.178C123.435 28.782 123.417 28.41 123.381 28.062C123.357 27.714 123.267 27.432 123.111 27.216C122.967 26.988 122.709 26.874 122.337 26.874C121.965 26.874 121.701 26.988 121.545 27.216C121.389 27.432 121.293 27.714 121.257 28.062C121.233 28.41 121.221 28.782 121.221 29.178V32.436C121.221 32.82 121.233 33.192 121.257 33.552C121.293 33.9 121.389 34.182 121.545 34.398C121.701 34.614 121.965 34.722 122.337 34.722ZM127.121 36V25.596H129.047V26.622C129.395 26.298 129.779 26.022 130.199 25.794C130.619 25.566 131.081 25.452 131.585 25.452C132.005 25.452 132.323 25.56 132.539 25.776C132.767 25.992 132.923 26.262 133.007 26.586C133.103 26.91 133.151 27.24 133.151 27.576V36H131.225V28.134C131.225 27.762 131.171 27.474 131.063 27.27C130.955 27.066 130.733 26.964 130.397 26.964C130.181 26.964 129.953 27.03 129.713 27.162C129.485 27.282 129.263 27.432 129.047 27.612V36H127.121ZM137.444 36.144C136.568 36.144 135.914 35.826 135.482 35.19C135.05 34.542 134.834 33.45 134.834 31.914V29.898C134.834 29.106 134.9 28.374 135.032 27.702C135.164 27.018 135.41 26.472 135.77 26.064C136.142 25.656 136.682 25.452 137.39 25.452C137.738 25.452 138.056 25.53 138.344 25.686C138.632 25.842 138.89 26.034 139.118 26.262V21.42H141.044V36H139.118V35.334C138.89 35.574 138.638 35.772 138.362 35.928C138.098 36.072 137.792 36.144 137.444 36.144ZM137.93 34.632C138.11 34.632 138.302 34.602 138.506 34.542C138.71 34.47 138.914 34.368 139.118 34.236V27.414C138.95 27.294 138.764 27.192 138.56 27.108C138.356 27.012 138.134 26.964 137.894 26.964C137.45 26.964 137.15 27.18 136.994 27.612C136.838 28.032 136.76 28.542 136.76 29.142V32.076C136.76 32.556 136.784 32.994 136.832 33.39C136.892 33.774 137.006 34.08 137.174 34.308C137.342 34.524 137.594 34.632 137.93 34.632ZM143.12 36V25.596H145.046V36H143.12ZM143.12 24.048V22.032H145.046V24.048H143.12ZM149.88 36.144C149.34 36.144 148.902 36.042 148.566 35.838C148.242 35.634 148.002 35.346 147.846 34.974C147.702 34.602 147.63 34.164 147.63 33.66V26.874H146.532V25.596H147.63V22.554H149.556V25.596H151.23V26.874H149.556V33.534C149.556 33.942 149.622 34.236 149.754 34.416C149.886 34.584 150.138 34.668 150.51 34.668C150.606 34.668 150.714 34.662 150.834 34.65C150.966 34.638 151.092 34.626 151.212 34.614V36.036C150.972 36.072 150.75 36.096 150.546 36.108C150.342 36.132 150.12 36.144 149.88 36.144ZM152.771 36V25.596H154.697V36H152.771ZM152.771 24.048V22.032H154.697V24.048H152.771ZM159.62 36.144C158.852 36.144 158.246 35.988 157.802 35.676C157.358 35.364 157.04 34.92 156.848 34.344C156.668 33.768 156.578 33.09 156.578 32.31V29.286C156.578 28.506 156.668 27.828 156.848 27.252C157.04 26.676 157.358 26.232 157.802 25.92C158.246 25.608 158.852 25.452 159.62 25.452C160.388 25.452 160.988 25.608 161.42 25.92C161.864 26.232 162.176 26.676 162.356 27.252C162.548 27.828 162.644 28.506 162.644 29.286V32.31C162.644 33.09 162.548 33.768 162.356 34.344C162.176 34.92 161.864 35.364 161.42 35.676C160.988 35.988 160.388 36.144 159.62 36.144ZM159.62 34.722C159.992 34.722 160.25 34.614 160.394 34.398C160.55 34.182 160.64 33.9 160.664 33.552C160.7 33.192 160.718 32.82 160.718 32.436V29.178C160.718 28.782 160.7 28.41 160.664 28.062C160.64 27.714 160.55 27.432 160.394 27.216C160.25 26.988 159.992 26.874 159.62 26.874C159.248 26.874 158.984 26.988 158.828 27.216C158.672 27.432 158.576 27.714 158.54 28.062C158.516 28.41 158.504 28.782 158.504 29.178V32.436C158.504 32.82 158.516 33.192 158.54 33.552C158.576 33.9 158.672 34.182 158.828 34.398C158.984 34.614 159.248 34.722 159.62 34.722ZM164.405 36V25.596H166.331V26.622C166.679 26.298 167.063 26.022 167.483 25.794C167.903 25.566 168.365 25.452 168.869 25.452C169.289 25.452 169.607 25.56 169.823 25.776C170.051 25.992 170.207 26.262 170.291 26.586C170.387 26.91 170.435 27.24 170.435 27.576V36H168.509V28.134C168.509 27.762 168.455 27.474 168.347 27.27C168.239 27.066 168.017 26.964 167.681 26.964C167.465 26.964 167.237 27.03 166.997 27.162C166.769 27.282 166.547 27.432 166.331 27.612V36H164.405ZM174.727 36.144C173.875 36.144 173.191 35.88 172.675 35.352C172.159 34.812 171.865 34.104 171.793 33.228L173.395 32.742C173.491 33.402 173.653 33.9 173.881 34.236C174.109 34.56 174.445 34.722 174.889 34.722C175.237 34.722 175.501 34.626 175.681 34.434C175.861 34.23 175.951 33.96 175.951 33.624C175.951 33.324 175.885 33.054 175.753 32.814C175.621 32.574 175.405 32.328 175.105 32.076L173.323 30.546C172.963 30.234 172.657 29.886 172.405 29.502C172.165 29.118 172.045 28.62 172.045 28.008C172.045 27.456 172.153 26.994 172.369 26.622C172.597 26.238 172.909 25.95 173.305 25.758C173.713 25.554 174.187 25.452 174.727 25.452C175.555 25.452 176.185 25.722 176.617 26.262C177.061 26.79 177.313 27.432 177.373 28.188L176.077 28.674C176.029 28.314 175.957 28.002 175.861 27.738C175.765 27.462 175.633 27.252 175.465 27.108C175.297 26.952 175.075 26.874 174.799 26.874C174.487 26.874 174.235 26.982 174.043 27.198C173.863 27.402 173.773 27.648 173.773 27.936C173.773 28.116 173.809 28.296 173.881 28.476C173.965 28.644 174.103 28.812 174.295 28.98L176.131 30.672C176.383 30.9 176.617 31.146 176.833 31.41C177.061 31.674 177.247 31.974 177.391 32.31C177.535 32.646 177.607 33.036 177.607 33.48C177.607 34.068 177.487 34.56 177.247 34.956C177.007 35.352 176.671 35.652 176.239 35.856C175.807 36.048 175.303 36.144 174.727 36.144Z" fill="white"/>
<path d="M187.541 7H28.5C16.6259 7 7.00003 16.6259 7.00007 28.5C7.00003 40.9264 17.0736 51 29.5 51H188.458C200.326 51 209.919 41.326 209.819 29.4583C209.919 17.0844 199.915 7 187.541 7Z" stroke="white" stroke-width="2"/>
</g>
<defs>
<filter id="filter0_d_41_5983" x="0" y="0" width="220.82" height="62" filterUnits="userSpaceOnUse" color-interpolation-filters="sRGB">
<feFlood flood-opacity="0" result="BackgroundImageFix"/>
<feColorMatrix in="SourceAlpha" type="matrix" values="0 0 0 0 0 0 0 0 0 0 0 0 0 0 0 0 0 0 127 0" result="hardAlpha"/>
<feOffset dx="2" dy="2"/>
<feGaussianBlur stdDeviation="4"/>
<feComposite in2="hardAlpha" operator="out"/>
<feColorMatrix type="matrix" values="0 0 0 0 0 0 0 0 0 0 0 0 0 0 0 0 0 0 0.11 0"/>
<feBlend mode="normal" in2="BackgroundImageFix" result="effect1_dropShadow_41_5983"/>
<feBlend mode="normal" in="SourceGraphic" in2="effect1_dropShadow_41_5983" result="shape"/>
</filter>
</defs>
</svg>
