<svg width="228" height="62" viewBox="0 0 228 62" fill="none" xmlns="http://www.w3.org/2000/svg">
<g filter="url(#filter0_d_41_6004)">
<path d="M29.3319 36V22.932H26.8659V21.42H33.7599V22.932H31.3659V36H29.3319ZM38.5725 36.144C37.7565 36.144 37.1265 35.988 36.6825 35.676C36.2385 35.352 35.9265 34.884 35.7465 34.272C35.5785 33.648 35.4945 32.886 35.4945 31.986V29.61C35.4945 28.686 35.5845 27.918 35.7645 27.306C35.9445 26.694 36.2565 26.232 36.7005 25.92C37.1565 25.608 37.7805 25.452 38.5725 25.452C39.4485 25.452 40.0905 25.632 40.4985 25.992C40.9185 26.352 41.1945 26.874 41.3265 27.558C41.4585 28.23 41.5245 29.04 41.5245 29.988V30.834H37.4205V32.922C37.4205 33.342 37.4565 33.684 37.5285 33.948C37.6125 34.212 37.7385 34.41 37.9065 34.542C38.0865 34.662 38.3145 34.722 38.5905 34.722C38.8785 34.722 39.0945 34.656 39.2385 34.524C39.3945 34.38 39.4965 34.182 39.5445 33.93C39.6045 33.666 39.6345 33.36 39.6345 33.012V32.382H41.5065V32.778C41.5065 33.822 41.2845 34.644 40.8405 35.244C40.3965 35.844 39.6405 36.144 38.5725 36.144ZM37.4205 29.79H39.6345V28.854C39.6345 28.422 39.6105 28.062 39.5625 27.774C39.5145 27.474 39.4125 27.252 39.2565 27.108C39.1125 26.952 38.8785 26.874 38.5545 26.874C38.2425 26.874 38.0025 26.946 37.8345 27.09C37.6785 27.234 37.5705 27.48 37.5105 27.828C37.4505 28.164 37.4205 28.632 37.4205 29.232V29.79ZM38.0145 24.732L39.0765 21.168H41.0025L38.9865 24.732H38.0145ZM44.2227 36V25.596H46.1487V27.072C46.5327 26.436 46.9167 26.01 47.3007 25.794C47.6847 25.578 48.0687 25.47 48.4527 25.47C48.5007 25.47 48.5427 25.47 48.5787 25.47C48.6267 25.47 48.6867 25.476 48.7587 25.488V27.612C48.6147 27.552 48.4467 27.504 48.2547 27.468C48.0747 27.42 47.8887 27.396 47.6967 27.396C47.3967 27.396 47.1207 27.468 46.8687 27.612C46.6287 27.744 46.3887 28.008 46.1487 28.404V36H44.2227ZM50.8519 36V25.596H52.6339V26.586C52.9819 26.19 53.3659 25.896 53.7859 25.704C54.2059 25.512 54.6379 25.416 55.0819 25.416C55.4659 25.416 55.8079 25.512 56.1079 25.704C56.4199 25.896 56.6419 26.238 56.7739 26.73C57.1459 26.274 57.5479 25.944 57.9799 25.74C58.4239 25.524 58.8859 25.416 59.3659 25.416C59.7019 25.416 60.0079 25.5 60.2839 25.668C60.5599 25.824 60.7819 26.082 60.9499 26.442C61.1179 26.79 61.2019 27.252 61.2019 27.828V36H59.4379V27.954C59.4379 27.45 59.3539 27.114 59.1859 26.946C59.0299 26.766 58.8139 26.676 58.5379 26.676C58.2739 26.676 57.9979 26.754 57.7099 26.91C57.4219 27.054 57.1579 27.258 56.9179 27.522C56.9179 27.57 56.9179 27.618 56.9179 27.666C56.9179 27.714 56.9179 27.768 56.9179 27.828V36H55.1539V27.954C55.1539 27.45 55.0699 27.114 54.9019 26.946C54.7459 26.766 54.5299 26.676 54.2539 26.676C53.9899 26.676 53.7139 26.754 53.4259 26.91C53.1499 27.054 52.8859 27.258 52.6339 27.522V36H50.8519ZM64.1123 36V25.596H66.0383V36H64.1123ZM64.1123 24.048V22.032H66.0383V24.048H64.1123ZM68.9995 36V25.596H70.9255V26.622C71.2735 26.298 71.6575 26.022 72.0775 25.794C72.4975 25.566 72.9595 25.452 73.4635 25.452C73.8835 25.452 74.2015 25.56 74.4175 25.776C74.6455 25.992 74.8015 26.262 74.8855 26.586C74.9815 26.91 75.0295 27.24 75.0295 27.576V36H73.1035V28.134C73.1035 27.762 73.0495 27.474 72.9415 27.27C72.8335 27.066 72.6115 26.964 72.2755 26.964C72.0595 26.964 71.8315 27.03 71.5915 27.162C71.3635 27.282 71.1415 27.432 70.9255 27.612V36H68.9995ZM80.6717 36.144C79.9037 36.144 79.2977 35.988 78.8537 35.676C78.4097 35.364 78.0917 34.92 77.8997 34.344C77.7197 33.768 77.6297 33.09 77.6297 32.31V29.286C77.6297 28.506 77.7197 27.828 77.8997 27.252C78.0917 26.676 78.4097 26.232 78.8537 25.92C79.2977 25.608 79.9037 25.452 80.6717 25.452C81.4397 25.452 82.0397 25.608 82.4717 25.92C82.9157 26.232 83.2277 26.676 83.4077 27.252C83.5997 27.828 83.6957 28.506 83.6957 29.286V32.31C83.6957 33.09 83.5997 33.768 83.4077 34.344C83.2277 34.92 82.9157 35.364 82.4717 35.676C82.0397 35.988 81.4397 36.144 80.6717 36.144ZM80.6717 34.722C81.0437 34.722 81.3017 34.614 81.4457 34.398C81.6017 34.182 81.6917 33.9 81.7157 33.552C81.7517 33.192 81.7697 32.82 81.7697 32.436V29.178C81.7697 28.782 81.7517 28.41 81.7157 28.062C81.6917 27.714 81.6017 27.432 81.4457 27.216C81.3017 26.988 81.0437 26.874 80.6717 26.874C80.2997 26.874 80.0357 26.988 79.8797 27.216C79.7237 27.432 79.6277 27.714 79.5917 28.062C79.5677 28.41 79.5557 28.782 79.5557 29.178V32.436C79.5557 32.82 79.5677 33.192 79.5917 33.552C79.6277 33.9 79.7237 34.182 79.8797 34.398C80.0357 34.614 80.2997 34.722 80.6717 34.722ZM88.7682 36.144C87.9162 36.144 87.2322 35.88 86.7162 35.352C86.2002 34.812 85.9062 34.104 85.8342 33.228L87.4362 32.742C87.5322 33.402 87.6942 33.9 87.9222 34.236C88.1502 34.56 88.4862 34.722 88.9302 34.722C89.2782 34.722 89.5422 34.626 89.7222 34.434C89.9022 34.23 89.9922 33.96 89.9922 33.624C89.9922 33.324 89.9262 33.054 89.7942 32.814C89.6622 32.574 89.4462 32.328 89.1462 32.076L87.3642 30.546C87.0042 30.234 86.6982 29.886 86.4462 29.502C86.2062 29.118 86.0862 28.62 86.0862 28.008C86.0862 27.456 86.1942 26.994 86.4102 26.622C86.6382 26.238 86.9502 25.95 87.3462 25.758C87.7542 25.554 88.2282 25.452 88.7682 25.452C89.5962 25.452 90.2262 25.722 90.6582 26.262C91.1022 26.79 91.3542 27.432 91.4142 28.188L90.1182 28.674C90.0702 28.314 89.9982 28.002 89.9022 27.738C89.8062 27.462 89.6742 27.252 89.5062 27.108C89.3382 26.952 89.1162 26.874 88.8402 26.874C88.5282 26.874 88.2762 26.982 88.0842 27.198C87.9042 27.402 87.8142 27.648 87.8142 27.936C87.8142 28.116 87.8502 28.296 87.9222 28.476C88.0062 28.644 88.1442 28.812 88.3362 28.98L90.1722 30.672C90.4242 30.9 90.6582 31.146 90.8742 31.41C91.1022 31.674 91.2882 31.974 91.4322 32.31C91.5762 32.646 91.6482 33.036 91.6482 33.48C91.6482 34.068 91.5282 34.56 91.2882 34.956C91.0482 35.352 90.7122 35.652 90.2802 35.856C89.8482 36.048 89.3442 36.144 88.7682 36.144ZM98.8399 38.61V37.134C99.3079 37.134 99.6799 37.11 99.9559 37.062C100.232 37.026 100.43 36.948 100.55 36.828C100.67 36.72 100.73 36.564 100.73 36.36C100.73 36.252 100.688 36.012 100.604 35.64C100.52 35.268 100.43 34.872 100.334 34.452L98.2459 25.596H100.19L101.594 33.372L102.944 25.596H104.888L102.404 36.576C102.296 37.08 102.098 37.476 101.81 37.764C101.522 38.064 101.15 38.28 100.694 38.412C100.25 38.544 99.7099 38.61 99.0739 38.61H98.8399ZM114.808 36.144C113.956 36.144 113.308 35.976 112.864 35.64C112.432 35.292 112.138 34.806 111.982 34.182C111.838 33.558 111.766 32.832 111.766 32.004V29.61C111.766 28.734 111.844 27.99 112 27.378C112.156 26.754 112.45 26.28 112.882 25.956C113.326 25.62 113.968 25.452 114.808 25.452C115.564 25.452 116.146 25.578 116.554 25.83C116.974 26.07 117.262 26.436 117.418 26.928C117.574 27.408 117.652 28.008 117.652 28.728V29.34H115.906V28.71C115.906 28.254 115.876 27.894 115.816 27.63C115.756 27.366 115.648 27.174 115.492 27.054C115.336 26.934 115.114 26.874 114.826 26.874C114.514 26.874 114.274 26.946 114.106 27.09C113.938 27.234 113.824 27.48 113.764 27.828C113.716 28.164 113.692 28.626 113.692 29.214V32.49C113.692 33.378 113.776 33.972 113.944 34.272C114.112 34.572 114.412 34.722 114.844 34.722C115.168 34.722 115.402 34.65 115.546 34.506C115.702 34.35 115.798 34.134 115.834 33.858C115.882 33.582 115.906 33.27 115.906 32.922V32.076H117.652V32.796C117.652 33.492 117.568 34.092 117.4 34.596C117.244 35.1 116.956 35.484 116.536 35.748C116.128 36.012 115.552 36.144 114.808 36.144ZM123.126 36.144C122.358 36.144 121.752 35.988 121.308 35.676C120.864 35.364 120.546 34.92 120.354 34.344C120.174 33.768 120.084 33.09 120.084 32.31V29.286C120.084 28.506 120.174 27.828 120.354 27.252C120.546 26.676 120.864 26.232 121.308 25.92C121.752 25.608 122.358 25.452 123.126 25.452C123.894 25.452 124.494 25.608 124.926 25.92C125.37 26.232 125.682 26.676 125.862 27.252C126.054 27.828 126.15 28.506 126.15 29.286V32.31C126.15 33.09 126.054 33.768 125.862 34.344C125.682 34.92 125.37 35.364 124.926 35.676C124.494 35.988 123.894 36.144 123.126 36.144ZM123.126 34.722C123.498 34.722 123.756 34.614 123.9 34.398C124.056 34.182 124.146 33.9 124.17 33.552C124.206 33.192 124.224 32.82 124.224 32.436V29.178C124.224 28.782 124.206 28.41 124.17 28.062C124.146 27.714 124.056 27.432 123.9 27.216C123.756 26.988 123.498 26.874 123.126 26.874C122.754 26.874 122.49 26.988 122.334 27.216C122.178 27.432 122.082 27.714 122.046 28.062C122.022 28.41 122.01 28.782 122.01 29.178V32.436C122.01 32.82 122.022 33.192 122.046 33.552C122.082 33.9 122.178 34.182 122.334 34.398C122.49 34.614 122.754 34.722 123.126 34.722ZM128.811 36V25.596H130.737V26.622C131.085 26.298 131.469 26.022 131.889 25.794C132.309 25.566 132.771 25.452 133.275 25.452C133.695 25.452 134.013 25.56 134.229 25.776C134.457 25.992 134.613 26.262 134.697 26.586C134.793 26.91 134.841 27.24 134.841 27.576V36H132.915V28.134C132.915 27.762 132.861 27.474 132.753 27.27C132.645 27.066 132.423 26.964 132.087 26.964C131.871 26.964 131.643 27.03 131.403 27.162C131.175 27.282 130.953 27.432 130.737 27.612V36H128.811ZM140.033 36.144C139.157 36.144 138.503 35.826 138.071 35.19C137.639 34.542 137.423 33.45 137.423 31.914V29.898C137.423 29.106 137.489 28.374 137.621 27.702C137.753 27.018 137.999 26.472 138.359 26.064C138.731 25.656 139.271 25.452 139.979 25.452C140.327 25.452 140.645 25.53 140.933 25.686C141.221 25.842 141.479 26.034 141.707 26.262V21.42H143.633V36H141.707V35.334C141.479 35.574 141.227 35.772 140.951 35.928C140.687 36.072 140.381 36.144 140.033 36.144ZM140.519 34.632C140.699 34.632 140.891 34.602 141.095 34.542C141.299 34.47 141.503 34.368 141.707 34.236V27.414C141.539 27.294 141.353 27.192 141.149 27.108C140.945 27.012 140.723 26.964 140.483 26.964C140.039 26.964 139.739 27.18 139.583 27.612C139.427 28.032 139.349 28.542 139.349 29.142V32.076C139.349 32.556 139.373 32.994 139.421 33.39C139.481 33.774 139.595 34.08 139.763 34.308C139.931 34.524 140.183 34.632 140.519 34.632ZM146.61 36V25.596H148.536V36H146.61ZM146.61 24.048V22.032H148.536V24.048H146.61ZM154.341 36.144C153.489 36.144 152.841 35.976 152.397 35.64C151.965 35.292 151.671 34.806 151.515 34.182C151.371 33.558 151.299 32.832 151.299 32.004V29.61C151.299 28.734 151.377 27.99 151.533 27.378C151.689 26.754 151.983 26.28 152.415 25.956C152.859 25.62 153.501 25.452 154.341 25.452C155.097 25.452 155.679 25.578 156.087 25.83C156.507 26.07 156.795 26.436 156.951 26.928C157.107 27.408 157.185 28.008 157.185 28.728V29.34H155.439V28.71C155.439 28.254 155.409 27.894 155.349 27.63C155.289 27.366 155.181 27.174 155.025 27.054C154.869 26.934 154.647 26.874 154.359 26.874C154.047 26.874 153.807 26.946 153.639 27.09C153.471 27.234 153.357 27.48 153.297 27.828C153.249 28.164 153.225 28.626 153.225 29.214V32.49C153.225 33.378 153.309 33.972 153.477 34.272C153.645 34.572 153.945 34.722 154.377 34.722C154.701 34.722 154.935 34.65 155.079 34.506C155.235 34.35 155.331 34.134 155.367 33.858C155.415 33.582 155.439 33.27 155.439 32.922V32.076H157.185V32.796C157.185 33.492 157.101 34.092 156.933 34.596C156.777 35.1 156.489 35.484 156.069 35.748C155.661 36.012 155.085 36.144 154.341 36.144ZM159.924 36V25.596H161.85V36H159.924ZM159.924 24.048V22.032H161.85V24.048H159.924ZM167.673 36.144C166.905 36.144 166.299 35.988 165.855 35.676C165.411 35.364 165.093 34.92 164.901 34.344C164.721 33.768 164.631 33.09 164.631 32.31V29.286C164.631 28.506 164.721 27.828 164.901 27.252C165.093 26.676 165.411 26.232 165.855 25.92C166.299 25.608 166.905 25.452 167.673 25.452C168.441 25.452 169.041 25.608 169.473 25.92C169.917 26.232 170.229 26.676 170.409 27.252C170.601 27.828 170.697 28.506 170.697 29.286V32.31C170.697 33.09 170.601 33.768 170.409 34.344C170.229 34.92 169.917 35.364 169.473 35.676C169.041 35.988 168.441 36.144 167.673 36.144ZM167.673 34.722C168.045 34.722 168.303 34.614 168.447 34.398C168.603 34.182 168.693 33.9 168.717 33.552C168.753 33.192 168.771 32.82 168.771 32.436V29.178C168.771 28.782 168.753 28.41 168.717 28.062C168.693 27.714 168.603 27.432 168.447 27.216C168.303 26.988 168.045 26.874 167.673 26.874C167.301 26.874 167.037 26.988 166.881 27.216C166.725 27.432 166.629 27.714 166.593 28.062C166.569 28.41 166.557 28.782 166.557 29.178V32.436C166.557 32.82 166.569 33.192 166.593 33.552C166.629 33.9 166.725 34.182 166.881 34.398C167.037 34.614 167.301 34.722 167.673 34.722ZM173.357 36V25.596H175.283V26.622C175.631 26.298 176.015 26.022 176.435 25.794C176.855 25.566 177.317 25.452 177.821 25.452C178.241 25.452 178.559 25.56 178.775 25.776C179.003 25.992 179.159 26.262 179.243 26.586C179.339 26.91 179.387 27.24 179.387 27.576V36H177.461V28.134C177.461 27.762 177.407 27.474 177.299 27.27C177.191 27.066 176.969 26.964 176.633 26.964C176.417 26.964 176.189 27.03 175.949 27.162C175.721 27.282 175.499 27.432 175.283 27.612V36H173.357ZM185.048 36.144C184.232 36.144 183.602 35.988 183.158 35.676C182.714 35.352 182.402 34.884 182.222 34.272C182.054 33.648 181.97 32.886 181.97 31.986V29.61C181.97 28.686 182.06 27.918 182.24 27.306C182.42 26.694 182.732 26.232 183.176 25.92C183.632 25.608 184.256 25.452 185.048 25.452C185.924 25.452 186.566 25.632 186.974 25.992C187.394 26.352 187.67 26.874 187.802 27.558C187.934 28.23 188 29.04 188 29.988V30.834H183.896V32.922C183.896 33.342 183.932 33.684 184.004 33.948C184.088 34.212 184.214 34.41 184.382 34.542C184.562 34.662 184.79 34.722 185.066 34.722C185.354 34.722 185.57 34.656 185.714 34.524C185.87 34.38 185.972 34.182 186.02 33.93C186.08 33.666 186.11 33.36 186.11 33.012V32.382H187.982V32.778C187.982 33.822 187.76 34.644 187.316 35.244C186.872 35.844 186.116 36.144 185.048 36.144ZM183.896 29.79H186.11V28.854C186.11 28.422 186.086 28.062 186.038 27.774C185.99 27.474 185.888 27.252 185.732 27.108C185.588 26.952 185.354 26.874 185.03 26.874C184.718 26.874 184.478 26.946 184.31 27.09C184.154 27.234 184.046 27.48 183.986 27.828C183.926 28.164 183.896 28.632 183.896 29.232V29.79ZM193.056 36.144C192.204 36.144 191.52 35.88 191.004 35.352C190.488 34.812 190.194 34.104 190.122 33.228L191.724 32.742C191.82 33.402 191.982 33.9 192.21 34.236C192.438 34.56 192.774 34.722 193.218 34.722C193.566 34.722 193.83 34.626 194.01 34.434C194.19 34.23 194.28 33.96 194.28 33.624C194.28 33.324 194.214 33.054 194.082 32.814C193.95 32.574 193.734 32.328 193.434 32.076L191.652 30.546C191.292 30.234 190.986 29.886 190.734 29.502C190.494 29.118 190.374 28.62 190.374 28.008C190.374 27.456 190.482 26.994 190.698 26.622C190.926 26.238 191.238 25.95 191.634 25.758C192.042 25.554 192.516 25.452 193.056 25.452C193.884 25.452 194.514 25.722 194.946 26.262C195.39 26.79 195.642 27.432 195.702 28.188L194.406 28.674C194.358 28.314 194.286 28.002 194.19 27.738C194.094 27.462 193.962 27.252 193.794 27.108C193.626 26.952 193.404 26.874 193.128 26.874C192.816 26.874 192.564 26.982 192.372 27.198C192.192 27.402 192.102 27.648 192.102 27.936C192.102 28.116 192.138 28.296 192.21 28.476C192.294 28.644 192.432 28.812 192.624 28.98L194.46 30.672C194.712 30.9 194.946 31.146 195.162 31.41C195.39 31.674 195.576 31.974 195.72 32.31C195.864 32.646 195.936 33.036 195.936 33.48C195.936 34.068 195.816 34.56 195.576 34.956C195.336 35.352 195 35.652 194.568 35.856C194.136 36.048 193.632 36.144 193.056 36.144Z" fill="white"/>
<path d="M194.541 7H28.5C16.6259 7 7.00003 16.6259 7.00008 28.5C7.00003 40.9264 17.0736 51 29.5 51H195.458C207.325 51 216.916 41.325 216.813 29.4583C216.916 17.0854 206.914 7 194.541 7Z" stroke="white" stroke-width="2"/>
</g>
<defs>
<filter id="filter0_d_41_6004" x="0" y="0" width="227.813" height="62" filterUnits="userSpaceOnUse" color-interpolation-filters="sRGB">
<feFlood flood-opacity="0" result="BackgroundImageFix"/>
<feColorMatrix in="SourceAlpha" type="matrix" values="0 0 0 0 0 0 0 0 0 0 0 0 0 0 0 0 0 0 127 0" result="hardAlpha"/>
<feOffset dx="2" dy="2"/>
<feGaussianBlur stdDeviation="4"/>
<feComposite in2="hardAlpha" operator="out"/>
<feColorMatrix type="matrix" values="0 0 0 0 0 0 0 0 0 0 0 0 0 0 0 0 0 0 0.11 0"/>
<feBlend mode="normal" in2="BackgroundImageFix" result="effect1_dropShadow_41_6004"/>
<feBlend mode="normal" in="SourceGraphic" in2="effect1_dropShadow_41_6004" result="shape"/>
</filter>
</defs>
</svg>
