<svg width="221" height="62" viewBox="0 0 221 62" fill="none" xmlns="http://www.w3.org/2000/svg">
<g filter="url(#filter0_d_41_5998)">
<path d="M30.5726 36.18C29.6606 36.18 28.9286 35.988 28.3766 35.604C27.8366 35.208 27.4406 34.638 27.1886 33.894C26.9486 33.15 26.8286 32.256 26.8286 31.212V26.334C26.8286 25.266 26.9366 24.36 27.1526 23.616C27.3806 22.86 27.7766 22.284 28.3406 21.888C28.9166 21.492 29.7146 21.294 30.7346 21.294C31.6466 21.294 32.3786 21.45 32.9306 21.762C33.4946 22.062 33.9026 22.53 34.1546 23.166C34.4066 23.79 34.5326 24.582 34.5326 25.542V26.082H32.6246V25.632C32.6246 24.996 32.5826 24.48 32.4986 24.084C32.4146 23.676 32.2406 23.376 31.9766 23.184C31.7246 22.98 31.3226 22.878 30.7706 22.878C30.1706 22.878 29.7326 23.016 29.4566 23.292C29.1926 23.568 29.0246 23.946 28.9526 24.426C28.8926 24.894 28.8626 25.428 28.8626 26.028V31.428C28.8626 32.124 28.9106 32.706 29.0066 33.174C29.1146 33.642 29.3126 33.99 29.6006 34.218C29.8886 34.446 30.2966 34.56 30.8246 34.56C31.3526 34.56 31.7606 34.434 32.0486 34.182C32.3366 33.93 32.5346 33.558 32.6426 33.066C32.7506 32.574 32.8046 31.962 32.8046 31.23V30.222H30.9506V28.782H34.6406V36H33.3626L33.1646 34.326C32.9726 34.866 32.6726 35.31 32.2646 35.658C31.8566 36.006 31.2926 36.18 30.5726 36.18ZM40.3495 36.144C39.5335 36.144 38.9035 35.988 38.4595 35.676C38.0155 35.352 37.7035 34.884 37.5235 34.272C37.3555 33.648 37.2715 32.886 37.2715 31.986V29.61C37.2715 28.686 37.3615 27.918 37.5415 27.306C37.7215 26.694 38.0335 26.232 38.4775 25.92C38.9335 25.608 39.5575 25.452 40.3495 25.452C41.2255 25.452 41.8675 25.632 42.2755 25.992C42.6955 26.352 42.9715 26.874 43.1035 27.558C43.2355 28.23 43.3015 29.04 43.3015 29.988V30.834H39.1975V32.922C39.1975 33.342 39.2335 33.684 39.3055 33.948C39.3895 34.212 39.5155 34.41 39.6835 34.542C39.8635 34.662 40.0915 34.722 40.3675 34.722C40.6555 34.722 40.8715 34.656 41.0155 34.524C41.1715 34.38 41.2735 34.182 41.3215 33.93C41.3815 33.666 41.4115 33.36 41.4115 33.012V32.382H43.2835V32.778C43.2835 33.822 43.0615 34.644 42.6175 35.244C42.1735 35.844 41.4175 36.144 40.3495 36.144ZM39.1975 29.79H41.4115V28.854C41.4115 28.422 41.3875 28.062 41.3395 27.774C41.2915 27.474 41.1895 27.252 41.0335 27.108C40.8895 26.952 40.6555 26.874 40.3315 26.874C40.0195 26.874 39.7795 26.946 39.6115 27.09C39.4555 27.234 39.3475 27.48 39.2875 27.828C39.2275 28.164 39.1975 28.632 39.1975 29.232V29.79ZM48.3576 36.144C47.5056 36.144 46.8216 35.88 46.3056 35.352C45.7896 34.812 45.4956 34.104 45.4236 33.228L47.0256 32.742C47.1216 33.402 47.2836 33.9 47.5116 34.236C47.7396 34.56 48.0756 34.722 48.5196 34.722C48.8676 34.722 49.1316 34.626 49.3116 34.434C49.4916 34.23 49.5816 33.96 49.5816 33.624C49.5816 33.324 49.5156 33.054 49.3836 32.814C49.2516 32.574 49.0356 32.328 48.7356 32.076L46.9536 30.546C46.5936 30.234 46.2876 29.886 46.0356 29.502C45.7956 29.118 45.6756 28.62 45.6756 28.008C45.6756 27.456 45.7836 26.994 45.9996 26.622C46.2276 26.238 46.5396 25.95 46.9356 25.758C47.3436 25.554 47.8176 25.452 48.3576 25.452C49.1856 25.452 49.8156 25.722 50.2476 26.262C50.6916 26.79 50.9436 27.432 51.0036 28.188L49.7076 28.674C49.6596 28.314 49.5876 28.002 49.4916 27.738C49.3956 27.462 49.2636 27.252 49.0956 27.108C48.9276 26.952 48.7056 26.874 48.4296 26.874C48.1176 26.874 47.8656 26.982 47.6736 27.198C47.4936 27.402 47.4036 27.648 47.4036 27.936C47.4036 28.116 47.4396 28.296 47.5116 28.476C47.5956 28.644 47.7336 28.812 47.9256 28.98L49.7616 30.672C50.0136 30.9 50.2476 31.146 50.4636 31.41C50.6916 31.674 50.8776 31.974 51.0216 32.31C51.1656 32.646 51.2376 33.036 51.2376 33.48C51.2376 34.068 51.1176 34.56 50.8776 34.956C50.6376 35.352 50.3016 35.652 49.8696 35.856C49.4376 36.048 48.9336 36.144 48.3576 36.144ZM56.4221 36.144C55.5701 36.144 54.9221 35.976 54.4781 35.64C54.0461 35.292 53.7521 34.806 53.5961 34.182C53.4521 33.558 53.3801 32.832 53.3801 32.004V29.61C53.3801 28.734 53.4581 27.99 53.6141 27.378C53.7701 26.754 54.0641 26.28 54.4961 25.956C54.9401 25.62 55.5821 25.452 56.4221 25.452C57.1781 25.452 57.7601 25.578 58.1681 25.83C58.5881 26.07 58.8761 26.436 59.0321 26.928C59.1881 27.408 59.2661 28.008 59.2661 28.728V29.34H57.5201V28.71C57.5201 28.254 57.4901 27.894 57.4301 27.63C57.3701 27.366 57.2621 27.174 57.1061 27.054C56.9501 26.934 56.7281 26.874 56.4401 26.874C56.1281 26.874 55.8881 26.946 55.7201 27.09C55.5521 27.234 55.4381 27.48 55.3781 27.828C55.3301 28.164 55.3061 28.626 55.3061 29.214V32.49C55.3061 33.378 55.3901 33.972 55.5581 34.272C55.7261 34.572 56.0261 34.722 56.4581 34.722C56.7821 34.722 57.0161 34.65 57.1601 34.506C57.3161 34.35 57.4121 34.134 57.4481 33.858C57.4961 33.582 57.5201 33.27 57.5201 32.922V32.076H59.2661V32.796C59.2661 33.492 59.1821 34.092 59.0141 34.596C58.8581 35.1 58.5701 35.484 58.1501 35.748C57.7421 36.012 57.1661 36.144 56.4221 36.144ZM61.9324 36V21.42H63.8584V26.676C64.2064 26.34 64.5964 26.052 65.0284 25.812C65.4604 25.572 65.9404 25.452 66.4684 25.452C66.8764 25.452 67.1884 25.56 67.4044 25.776C67.6324 25.992 67.7884 26.262 67.8724 26.586C67.9684 26.91 68.0164 27.24 68.0164 27.576V36H66.0904V28.134C66.0904 27.762 66.0364 27.474 65.9284 27.27C65.8204 27.066 65.5984 26.964 65.2624 26.964C65.0344 26.964 64.7944 27.03 64.5424 27.162C64.3024 27.294 64.0744 27.456 63.8584 27.648V36H61.9324ZM72.6661 36.144C72.2581 36.144 71.8981 36.03 71.5861 35.802C71.2741 35.562 71.0281 35.262 70.8481 34.902C70.6681 34.53 70.5781 34.14 70.5781 33.732C70.5781 33.084 70.6861 32.538 70.9021 32.094C71.1181 31.65 71.4121 31.278 71.7841 30.978C72.1681 30.666 72.6061 30.396 73.0981 30.168C73.6021 29.94 74.1301 29.718 74.6821 29.502V28.764C74.6821 28.344 74.6581 27.996 74.6101 27.72C74.5621 27.444 74.4601 27.24 74.3041 27.108C74.1601 26.964 73.9381 26.892 73.6381 26.892C73.3741 26.892 73.1581 26.952 72.9901 27.072C72.8341 27.192 72.7201 27.366 72.6481 27.594C72.5761 27.81 72.5401 28.068 72.5401 28.368V28.89L70.6321 28.818C70.6561 27.666 70.9201 26.82 71.4241 26.28C71.9281 25.728 72.7081 25.452 73.7641 25.452C74.7961 25.452 75.5281 25.734 75.9601 26.298C76.3921 26.862 76.6081 27.678 76.6081 28.746V33.498C76.6081 33.822 76.6141 34.134 76.6261 34.434C76.6501 34.734 76.6741 35.016 76.6981 35.28C76.7341 35.532 76.7641 35.772 76.7881 36H75.0241C74.9881 35.808 74.9401 35.568 74.8801 35.28C74.8321 34.98 74.7961 34.71 74.7721 34.47C74.6521 34.878 74.4181 35.262 74.0701 35.622C73.7341 35.97 73.2661 36.144 72.6661 36.144ZM73.4221 34.488C73.6141 34.488 73.7941 34.434 73.9621 34.326C74.1301 34.218 74.2801 34.098 74.4121 33.966C74.5441 33.822 74.6341 33.708 74.6821 33.624V30.672C74.3821 30.84 74.1001 31.008 73.8361 31.176C73.5721 31.344 73.3381 31.524 73.1341 31.716C72.9421 31.896 72.7861 32.106 72.6661 32.346C72.5581 32.574 72.5041 32.838 72.5041 33.138C72.5041 33.558 72.5821 33.888 72.7381 34.128C72.8941 34.368 73.1221 34.488 73.4221 34.488ZM74.3401 23.418V21.42H76.2841V23.418H74.3401ZM71.2441 23.418V21.42H73.1881V23.418H71.2441ZM79.9701 36V27.018H78.7281V25.596H79.9701V25.056C79.9701 24.408 80.0181 23.856 80.1141 23.4C80.2221 22.932 80.4381 22.572 80.7621 22.32C81.0861 22.068 81.5721 21.942 82.2201 21.942C82.4601 21.942 82.6701 21.954 82.8501 21.978C83.0421 21.99 83.2521 22.02 83.4801 22.068V23.472C83.3721 23.448 83.2521 23.43 83.1201 23.418C82.9881 23.394 82.8681 23.382 82.7601 23.382C82.3881 23.382 82.1481 23.508 82.0401 23.76C81.9441 24 81.8961 24.324 81.8961 24.732V25.596H83.4801V27.018H81.8961V36H79.9701ZM88.1981 36.144C87.6581 36.144 87.2201 36.042 86.8841 35.838C86.5601 35.634 86.3201 35.346 86.1641 34.974C86.0201 34.602 85.9481 34.164 85.9481 33.66V26.874H84.8501V25.596H85.9481V22.554H87.8741V25.596H89.5481V26.874H87.8741V33.534C87.8741 33.942 87.9401 34.236 88.0721 34.416C88.2041 34.584 88.4561 34.668 88.8281 34.668C88.9241 34.668 89.0321 34.662 89.1521 34.65C89.2841 34.638 89.4101 34.626 89.5301 34.614V36.036C89.2901 36.072 89.0681 36.096 88.8641 36.108C88.6601 36.132 88.4381 36.144 88.1981 36.144ZM94.2752 36.144C93.4232 36.144 92.7392 35.88 92.2232 35.352C91.7072 34.812 91.4132 34.104 91.3412 33.228L92.9432 32.742C93.0392 33.402 93.2012 33.9 93.4292 34.236C93.6572 34.56 93.9932 34.722 94.4372 34.722C94.7852 34.722 95.0492 34.626 95.2292 34.434C95.4092 34.23 95.4992 33.96 95.4992 33.624C95.4992 33.324 95.4332 33.054 95.3012 32.814C95.1692 32.574 94.9532 32.328 94.6532 32.076L92.8712 30.546C92.5112 30.234 92.2052 29.886 91.9532 29.502C91.7132 29.118 91.5932 28.62 91.5932 28.008C91.5932 27.456 91.7012 26.994 91.9172 26.622C92.1452 26.238 92.4572 25.95 92.8532 25.758C93.2612 25.554 93.7352 25.452 94.2752 25.452C95.1032 25.452 95.7332 25.722 96.1652 26.262C96.6092 26.79 96.8612 27.432 96.9212 28.188L95.6252 28.674C95.5772 28.314 95.5052 28.002 95.4092 27.738C95.3132 27.462 95.1812 27.252 95.0132 27.108C94.8452 26.952 94.6232 26.874 94.3472 26.874C94.0352 26.874 93.7832 26.982 93.5912 27.198C93.4112 27.402 93.3212 27.648 93.3212 27.936C93.3212 28.116 93.3572 28.296 93.4292 28.476C93.5132 28.644 93.6512 28.812 93.8432 28.98L95.6792 30.672C95.9312 30.9 96.1652 31.146 96.3812 31.41C96.6092 31.674 96.7952 31.974 96.9392 32.31C97.0832 32.646 97.1552 33.036 97.1552 33.48C97.1552 34.068 97.0352 34.56 96.7952 34.956C96.5552 35.352 96.2192 35.652 95.7872 35.856C95.3552 36.048 94.8512 36.144 94.2752 36.144ZM103.222 36.144C102.85 36.144 102.514 36.054 102.214 35.874C101.926 35.682 101.674 35.472 101.458 35.244V36H99.5316V21.42H101.458V26.424C101.686 26.16 101.956 25.932 102.268 25.74C102.592 25.548 102.976 25.452 103.42 25.452C103.96 25.452 104.386 25.596 104.698 25.884C105.022 26.16 105.262 26.514 105.418 26.946C105.574 27.366 105.676 27.798 105.724 28.242C105.772 28.674 105.796 29.046 105.796 29.358V31.878C105.796 32.61 105.724 33.306 105.58 33.966C105.436 34.614 105.178 35.142 104.806 35.55C104.434 35.946 103.906 36.144 103.222 36.144ZM102.826 34.632C103.162 34.632 103.402 34.512 103.546 34.272C103.69 34.02 103.78 33.684 103.816 33.264C103.852 32.844 103.87 32.382 103.87 31.878V29.358C103.87 28.926 103.846 28.53 103.798 28.17C103.75 27.798 103.648 27.504 103.492 27.288C103.336 27.072 103.09 26.964 102.754 26.964C102.502 26.964 102.262 27.018 102.034 27.126C101.818 27.234 101.626 27.354 101.458 27.486V34.164C101.626 34.296 101.824 34.41 102.052 34.506C102.292 34.59 102.55 34.632 102.826 34.632ZM111.326 36.144C110.51 36.144 109.88 35.988 109.436 35.676C108.992 35.352 108.68 34.884 108.5 34.272C108.332 33.648 108.248 32.886 108.248 31.986V29.61C108.248 28.686 108.338 27.918 108.518 27.306C108.698 26.694 109.01 26.232 109.454 25.92C109.91 25.608 110.534 25.452 111.326 25.452C112.202 25.452 112.844 25.632 113.252 25.992C113.672 26.352 113.948 26.874 114.08 27.558C114.212 28.23 114.278 29.04 114.278 29.988V30.834H110.174V32.922C110.174 33.342 110.21 33.684 110.282 33.948C110.366 34.212 110.492 34.41 110.66 34.542C110.84 34.662 111.068 34.722 111.344 34.722C111.632 34.722 111.848 34.656 111.992 34.524C112.148 34.38 112.25 34.182 112.298 33.93C112.358 33.666 112.388 33.36 112.388 33.012V32.382H114.26V32.778C114.26 33.822 114.038 34.644 113.594 35.244C113.15 35.844 112.394 36.144 111.326 36.144ZM110.174 29.79H112.388V28.854C112.388 28.422 112.364 28.062 112.316 27.774C112.268 27.474 112.166 27.252 112.01 27.108C111.866 26.952 111.632 26.874 111.308 26.874C110.996 26.874 110.756 26.946 110.588 27.09C110.432 27.234 110.324 27.48 110.264 27.828C110.204 28.164 110.174 28.632 110.174 29.232V29.79ZM119.335 36.144C118.459 36.144 117.805 35.826 117.373 35.19C116.941 34.542 116.725 33.45 116.725 31.914V29.898C116.725 29.106 116.791 28.374 116.923 27.702C117.055 27.018 117.301 26.472 117.661 26.064C118.033 25.656 118.573 25.452 119.281 25.452C119.629 25.452 119.947 25.53 120.235 25.686C120.523 25.842 120.781 26.034 121.009 26.262V21.42H122.935V36H121.009V35.334C120.781 35.574 120.529 35.772 120.253 35.928C119.989 36.072 119.683 36.144 119.335 36.144ZM119.821 34.632C120.001 34.632 120.193 34.602 120.397 34.542C120.601 34.47 120.805 34.368 121.009 34.236V27.414C120.841 27.294 120.655 27.192 120.451 27.108C120.247 27.012 120.025 26.964 119.785 26.964C119.341 26.964 119.041 27.18 118.885 27.612C118.729 28.032 118.651 28.542 118.651 29.142V32.076C118.651 32.556 118.675 32.994 118.723 33.39C118.783 33.774 118.897 34.08 119.065 34.308C119.233 34.524 119.485 34.632 119.821 34.632ZM125.911 36V25.596H127.837V36H125.911ZM125.911 24.048V22.032H127.837V24.048H125.911ZM130.799 36V25.596H132.725V26.622C133.073 26.298 133.457 26.022 133.877 25.794C134.297 25.566 134.759 25.452 135.263 25.452C135.683 25.452 136.001 25.56 136.217 25.776C136.445 25.992 136.601 26.262 136.685 26.586C136.781 26.91 136.829 27.24 136.829 27.576V36H134.903V28.134C134.903 27.762 134.849 27.474 134.741 27.27C134.633 27.066 134.411 26.964 134.075 26.964C133.859 26.964 133.631 27.03 133.391 27.162C133.163 27.282 132.941 27.432 132.725 27.612V36H130.799ZM142.309 39.222C141.685 39.222 141.121 39.156 140.617 39.024C140.113 38.892 139.717 38.682 139.429 38.394C139.141 38.106 138.997 37.728 138.997 37.26C138.997 36.924 139.069 36.63 139.213 36.378C139.357 36.126 139.543 35.91 139.771 35.73C139.999 35.538 140.239 35.382 140.491 35.262C140.155 35.166 139.903 35.016 139.735 34.812C139.567 34.596 139.483 34.374 139.483 34.146C139.483 33.762 139.585 33.432 139.789 33.156C139.993 32.88 140.275 32.58 140.635 32.256C140.239 31.956 139.939 31.572 139.735 31.104C139.531 30.636 139.429 29.988 139.429 29.16C139.429 28.344 139.537 27.666 139.753 27.126C139.981 26.574 140.311 26.16 140.743 25.884C141.187 25.596 141.727 25.452 142.363 25.452C142.927 25.452 143.377 25.548 143.713 25.74C144.061 25.932 144.325 26.22 144.505 26.604C144.565 26.508 144.727 26.346 144.991 26.118C145.255 25.878 145.561 25.68 145.909 25.524L146.197 25.398L146.683 26.64C146.527 26.664 146.317 26.724 146.053 26.82C145.801 26.904 145.561 26.994 145.333 27.09C145.117 27.174 144.979 27.246 144.919 27.306C145.003 27.51 145.075 27.804 145.135 28.188C145.207 28.572 145.243 28.914 145.243 29.214C145.243 29.922 145.153 30.546 144.973 31.086C144.793 31.626 144.493 32.052 144.073 32.364C143.665 32.664 143.095 32.814 142.363 32.814C142.207 32.814 142.039 32.802 141.859 32.778C141.679 32.754 141.517 32.724 141.373 32.688C141.301 32.796 141.223 32.922 141.139 33.066C141.067 33.21 141.031 33.348 141.031 33.48C141.031 33.612 141.097 33.72 141.229 33.804C141.373 33.876 141.595 33.924 141.895 33.948L143.515 34.092C144.331 34.164 144.937 34.41 145.333 34.83C145.729 35.25 145.927 35.85 145.927 36.63C145.927 37.194 145.795 37.668 145.531 38.052C145.267 38.448 144.865 38.742 144.325 38.934C143.797 39.126 143.125 39.222 142.309 39.222ZM142.453 37.71C143.137 37.71 143.641 37.626 143.965 37.458C144.289 37.302 144.451 37.044 144.451 36.684C144.451 36.468 144.409 36.288 144.325 36.144C144.253 36 144.115 35.886 143.911 35.802C143.707 35.718 143.413 35.658 143.029 35.622L141.391 35.478C141.259 35.61 141.133 35.742 141.013 35.874C140.893 36.006 140.797 36.144 140.725 36.288C140.653 36.444 140.617 36.606 140.617 36.774C140.617 37.086 140.749 37.32 141.013 37.476C141.277 37.632 141.757 37.71 142.453 37.71ZM142.363 31.464C142.639 31.464 142.855 31.416 143.011 31.32C143.179 31.212 143.305 31.062 143.389 30.87C143.473 30.666 143.527 30.42 143.551 30.132C143.587 29.844 143.605 29.52 143.605 29.16C143.605 28.8 143.587 28.476 143.551 28.188C143.527 27.888 143.473 27.636 143.389 27.432C143.317 27.216 143.197 27.054 143.029 26.946C142.873 26.838 142.657 26.784 142.381 26.784C142.117 26.784 141.895 26.838 141.715 26.946C141.547 27.054 141.421 27.21 141.337 27.414C141.253 27.606 141.193 27.852 141.157 28.152C141.121 28.44 141.103 28.776 141.103 29.16C141.103 29.484 141.115 29.79 141.139 30.078C141.175 30.354 141.235 30.594 141.319 30.798C141.415 31.002 141.547 31.164 141.715 31.284C141.883 31.404 142.099 31.464 142.363 31.464ZM149.825 36.144C149.417 36.144 149.099 36.036 148.871 35.82C148.643 35.604 148.481 35.334 148.385 35.01C148.301 34.686 148.259 34.356 148.259 34.02V25.596H150.185V33.444C150.185 33.816 150.239 34.11 150.347 34.326C150.455 34.53 150.677 34.632 151.013 34.632C151.229 34.632 151.451 34.572 151.679 34.452C151.919 34.32 152.147 34.164 152.363 33.984V25.596H154.289V36H152.363V34.974C152.027 35.298 151.643 35.574 151.211 35.802C150.791 36.03 150.329 36.144 149.825 36.144ZM157.159 36V25.596H159.085V26.622C159.433 26.298 159.817 26.022 160.237 25.794C160.657 25.566 161.119 25.452 161.623 25.452C162.043 25.452 162.361 25.56 162.577 25.776C162.805 25.992 162.961 26.262 163.045 26.586C163.141 26.91 163.189 27.24 163.189 27.576V36H161.263V28.134C161.263 27.762 161.209 27.474 161.101 27.27C160.993 27.066 160.771 26.964 160.435 26.964C160.219 26.964 159.991 27.03 159.751 27.162C159.523 27.282 159.301 27.432 159.085 27.612V36H157.159ZM168.669 39.222C168.045 39.222 167.481 39.156 166.977 39.024C166.473 38.892 166.077 38.682 165.789 38.394C165.501 38.106 165.357 37.728 165.357 37.26C165.357 36.924 165.429 36.63 165.573 36.378C165.717 36.126 165.903 35.91 166.131 35.73C166.359 35.538 166.599 35.382 166.851 35.262C166.515 35.166 166.263 35.016 166.095 34.812C165.927 34.596 165.843 34.374 165.843 34.146C165.843 33.762 165.945 33.432 166.149 33.156C166.353 32.88 166.635 32.58 166.995 32.256C166.599 31.956 166.299 31.572 166.095 31.104C165.891 30.636 165.789 29.988 165.789 29.16C165.789 28.344 165.897 27.666 166.113 27.126C166.341 26.574 166.671 26.16 167.103 25.884C167.547 25.596 168.087 25.452 168.723 25.452C169.287 25.452 169.737 25.548 170.073 25.74C170.421 25.932 170.685 26.22 170.865 26.604C170.925 26.508 171.087 26.346 171.351 26.118C171.615 25.878 171.921 25.68 172.269 25.524L172.557 25.398L173.043 26.64C172.887 26.664 172.677 26.724 172.413 26.82C172.161 26.904 171.921 26.994 171.693 27.09C171.477 27.174 171.339 27.246 171.279 27.306C171.363 27.51 171.435 27.804 171.495 28.188C171.567 28.572 171.603 28.914 171.603 29.214C171.603 29.922 171.513 30.546 171.333 31.086C171.153 31.626 170.853 32.052 170.433 32.364C170.025 32.664 169.455 32.814 168.723 32.814C168.567 32.814 168.399 32.802 168.219 32.778C168.039 32.754 167.877 32.724 167.733 32.688C167.661 32.796 167.583 32.922 167.499 33.066C167.427 33.21 167.391 33.348 167.391 33.48C167.391 33.612 167.457 33.72 167.589 33.804C167.733 33.876 167.955 33.924 168.255 33.948L169.875 34.092C170.691 34.164 171.297 34.41 171.693 34.83C172.089 35.25 172.287 35.85 172.287 36.63C172.287 37.194 172.155 37.668 171.891 38.052C171.627 38.448 171.225 38.742 170.685 38.934C170.157 39.126 169.485 39.222 168.669 39.222ZM168.813 37.71C169.497 37.71 170.001 37.626 170.325 37.458C170.649 37.302 170.811 37.044 170.811 36.684C170.811 36.468 170.769 36.288 170.685 36.144C170.613 36 170.475 35.886 170.271 35.802C170.067 35.718 169.773 35.658 169.389 35.622L167.751 35.478C167.619 35.61 167.493 35.742 167.373 35.874C167.253 36.006 167.157 36.144 167.085 36.288C167.013 36.444 166.977 36.606 166.977 36.774C166.977 37.086 167.109 37.32 167.373 37.476C167.637 37.632 168.117 37.71 168.813 37.71ZM168.723 31.464C168.999 31.464 169.215 31.416 169.371 31.32C169.539 31.212 169.665 31.062 169.749 30.87C169.833 30.666 169.887 30.42 169.911 30.132C169.947 29.844 169.965 29.52 169.965 29.16C169.965 28.8 169.947 28.476 169.911 28.188C169.887 27.888 169.833 27.636 169.749 27.432C169.677 27.216 169.557 27.054 169.389 26.946C169.233 26.838 169.017 26.784 168.741 26.784C168.477 26.784 168.255 26.838 168.075 26.946C167.907 27.054 167.781 27.21 167.697 27.414C167.613 27.606 167.553 27.852 167.517 28.152C167.481 28.44 167.463 28.776 167.463 29.16C167.463 29.484 167.475 29.79 167.499 30.078C167.535 30.354 167.595 30.594 167.679 30.798C167.775 31.002 167.907 31.164 168.075 31.284C168.243 31.404 168.459 31.464 168.723 31.464ZM177.501 36.144C176.685 36.144 176.055 35.988 175.611 35.676C175.167 35.352 174.855 34.884 174.675 34.272C174.507 33.648 174.423 32.886 174.423 31.986V29.61C174.423 28.686 174.513 27.918 174.693 27.306C174.873 26.694 175.185 26.232 175.629 25.92C176.085 25.608 176.709 25.452 177.501 25.452C178.377 25.452 179.019 25.632 179.427 25.992C179.847 26.352 180.123 26.874 180.255 27.558C180.387 28.23 180.453 29.04 180.453 29.988V30.834H176.349V32.922C176.349 33.342 176.385 33.684 176.457 33.948C176.541 34.212 176.667 34.41 176.835 34.542C177.015 34.662 177.243 34.722 177.519 34.722C177.807 34.722 178.023 34.656 178.167 34.524C178.323 34.38 178.425 34.182 178.473 33.93C178.533 33.666 178.563 33.36 178.563 33.012V32.382H180.435V32.778C180.435 33.822 180.213 34.644 179.769 35.244C179.325 35.844 178.569 36.144 177.501 36.144ZM176.349 29.79H178.563V28.854C178.563 28.422 178.539 28.062 178.491 27.774C178.443 27.474 178.341 27.252 178.185 27.108C178.041 26.952 177.807 26.874 177.483 26.874C177.171 26.874 176.931 26.946 176.763 27.09C176.607 27.234 176.499 27.48 176.439 27.828C176.379 28.164 176.349 28.632 176.349 29.232V29.79ZM183.097 36V25.596H185.023V26.622C185.371 26.298 185.755 26.022 186.175 25.794C186.595 25.566 187.057 25.452 187.561 25.452C187.981 25.452 188.299 25.56 188.515 25.776C188.743 25.992 188.899 26.262 188.983 26.586C189.079 26.91 189.127 27.24 189.127 27.576V36H187.201V28.134C187.201 27.762 187.147 27.474 187.039 27.27C186.931 27.066 186.709 26.964 186.373 26.964C186.157 26.964 185.929 27.03 185.689 27.162C185.461 27.282 185.239 27.432 185.023 27.612V36H183.097Z" fill="white"/>
<path d="M187.541 7H28.5C16.6259 7 7.00003 16.6259 7.00007 28.5C7.00003 40.9264 17.0736 51 29.5 51H188.458C200.326 51 209.919 41.326 209.819 29.4583C209.919 17.0844 199.915 7 187.541 7Z" stroke="white" stroke-width="2"/>
</g>
<defs>
<filter id="filter0_d_41_5998" x="0" y="0" width="220.82" height="62" filterUnits="userSpaceOnUse" color-interpolation-filters="sRGB">
<feFlood flood-opacity="0" result="BackgroundImageFix"/>
<feColorMatrix in="SourceAlpha" type="matrix" values="0 0 0 0 0 0 0 0 0 0 0 0 0 0 0 0 0 0 127 0" result="hardAlpha"/>
<feOffset dx="2" dy="2"/>
<feGaussianBlur stdDeviation="4"/>
<feComposite in2="hardAlpha" operator="out"/>
<feColorMatrix type="matrix" values="0 0 0 0 0 0 0 0 0 0 0 0 0 0 0 0 0 0 0.11 0"/>
<feBlend mode="normal" in2="BackgroundImageFix" result="effect1_dropShadow_41_5998"/>
<feBlend mode="normal" in="SourceGraphic" in2="effect1_dropShadow_41_5998" result="shape"/>
</filter>
</defs>
</svg>
